<svg id="svg" version="1.1" xmlns="http://www.w3.org/2000/svg" xmlns:xlink="http://www.w3.org/1999/xlink" width="400" height="400" viewBox="0, 0, 400,400"><g id="svgg"><path id="path0" d="M185.163 55.395 C 171.568 56.874,156.379 60.637,145.600 65.195 C 143.950 65.893,142.271 66.564,141.869 66.687 C 140.539 67.092,129.066 73.018,125.400 75.193 C 119.758 78.540,117.471 80.135,108.182 87.200 C 102.788 91.303,91.031 103.125,86.648 108.855 C 85.962 109.752,84.819 111.232,84.108 112.143 C 82.559 114.130,75.872 123.950,75.489 124.800 C 75.340 125.130,74.681 126.300,74.024 127.400 C 72.882 129.313,67.576 139.860,66.273 142.806 C 65.483 144.592,64.997 145.834,63.530 149.800 C 62.463 152.688,62.094 153.773,60.812 157.800 C 52.890 182.679,52.890 217.321,60.812 242.200 C 62.094 246.227,62.463 247.312,63.530 250.200 C 64.997 254.166,65.483 255.408,66.273 257.194 C 67.576 260.140,72.882 270.687,74.024 272.600 C 74.681 273.700,75.340 274.870,75.489 275.200 C 75.872 276.050,82.559 285.870,84.108 287.857 C 84.819 288.768,85.962 290.248,86.648 291.145 C 91.031 296.875,102.788 308.697,108.182 312.800 C 117.471 319.865,119.758 321.460,125.400 324.807 C 129.066 326.982,140.539 332.908,141.869 333.313 C 142.271 333.436,143.950 334.107,145.600 334.805 C 178.246 348.610,221.754 348.610,254.400 334.805 C 256.050 334.107,257.729 333.436,258.131 333.313 C 259.461 332.908,270.934 326.982,274.600 324.807 C 280.242 321.460,282.529 319.865,291.818 312.800 C 297.212 308.697,308.969 296.875,313.352 291.145 C 314.038 290.248,315.181 288.768,315.892 287.857 C 317.441 285.870,324.128 276.050,324.511 275.200 C 324.660 274.870,325.319 273.700,325.976 272.600 C 327.118 270.687,332.424 260.140,333.727 257.194 C 334.517 255.408,335.003 254.166,336.470 250.200 C 337.537 247.312,337.906 246.227,339.188 242.200 C 347.110 217.321,347.110 182.679,339.188 157.800 C 337.906 153.773,337.537 152.688,336.470 149.800 C 335.003 145.834,334.517 144.592,333.727 142.806 C 332.424 139.860,327.118 129.313,325.976 127.400 C 325.319 126.300,324.660 125.130,324.511 124.800 C 324.128 123.950,317.441 114.130,315.892 112.143 C 315.181 111.232,314.038 109.752,313.352 108.855 C 308.969 103.125,297.212 91.303,291.818 87.200 C 282.529 80.135,280.242 78.540,274.600 75.193 C 270.934 73.018,259.461 67.092,258.131 66.687 C 257.729 66.564,256.050 65.893,254.400 65.195 C 234.813 56.912,207.173 53.000,185.163 55.395 " stroke="none" fill="#7bdbfc" fill-rule="evenodd"></path><path id="path1" d="M180.400 40.000 C 180.400 40.233,179.067 40.400,177.200 40.400 C 175.333 40.400,174.000 40.567,174.000 40.800 C 174.000 41.020,173.100 41.200,172.000 41.200 C 170.900 41.200,170.000 41.380,170.000 41.600 C 170.000 41.820,169.100 42.000,168.000 42.000 C 166.900 42.000,166.000 42.180,166.000 42.400 C 166.000 42.620,165.100 42.800,164.000 42.800 C 162.900 42.800,162.000 42.980,162.000 43.200 C 162.000 43.420,161.280 43.600,160.400 43.600 C 159.520 43.600,158.800 43.780,158.800 44.000 C 158.800 44.220,158.260 44.400,157.600 44.400 C 156.940 44.400,156.400 44.580,156.400 44.800 C 156.400 45.020,155.680 45.200,154.800 45.200 C 153.920 45.200,153.200 45.380,153.200 45.600 C 153.200 45.820,152.660 46.000,152.000 46.000 C 151.340 46.000,150.800 46.180,150.800 46.400 C 150.800 46.620,150.260 46.800,149.600 46.800 C 148.940 46.800,148.400 46.980,148.400 47.200 C 148.400 47.420,147.860 47.600,147.200 47.600 C 146.540 47.600,146.000 47.780,146.000 48.000 C 146.000 48.220,145.460 48.400,144.800 48.400 C 144.140 48.400,143.600 48.580,143.600 48.800 C 143.600 49.020,143.240 49.200,142.800 49.200 C 142.360 49.200,142.000 49.380,142.000 49.600 C 142.000 49.820,141.460 50.000,140.800 50.000 C 140.140 50.000,139.600 50.180,139.600 50.400 C 139.600 50.620,139.240 50.800,138.800 50.800 C 138.360 50.800,138.000 50.980,138.000 51.200 C 138.000 51.420,137.460 51.600,136.800 51.600 C 136.140 51.600,135.600 51.780,135.600 52.000 C 135.600 52.220,135.240 52.400,134.800 52.400 C 134.360 52.400,134.000 52.580,134.000 52.800 C 134.000 53.020,133.640 53.200,133.200 53.200 C 132.760 53.200,132.400 53.380,132.400 53.600 C 132.400 53.820,132.040 54.000,131.600 54.000 C 131.160 54.000,130.800 54.180,130.800 54.400 C 130.800 54.620,130.440 54.800,130.000 54.800 C 129.560 54.800,129.200 54.980,129.200 55.200 C 129.200 55.420,128.840 55.600,128.400 55.600 C 127.960 55.600,127.600 55.780,127.600 56.000 C 127.600 56.220,127.240 56.400,126.800 56.400 C 126.360 56.400,126.000 56.580,126.000 56.800 C 126.000 57.020,125.640 57.200,125.200 57.200 C 124.760 57.200,124.400 57.380,124.400 57.600 C 124.400 57.820,124.040 58.000,123.600 58.000 C 123.160 58.000,122.800 58.180,122.800 58.400 C 122.800 58.620,122.440 58.800,122.000 58.800 C 121.560 58.800,121.200 58.980,121.200 59.200 C 121.200 59.420,120.880 59.600,120.488 59.600 C 120.097 59.600,119.517 59.960,119.200 60.400 C 118.883 60.840,118.303 61.200,117.912 61.200 C 117.520 61.200,117.200 61.380,117.200 61.600 C 117.200 61.820,116.880 62.000,116.488 62.000 C 116.097 62.000,115.517 62.360,115.200 62.800 C 114.883 63.240,114.343 63.600,114.000 63.600 C 113.657 63.600,113.117 63.960,112.800 64.400 C 112.483 64.840,111.943 65.200,111.600 65.200 C 111.257 65.200,110.717 65.560,110.400 66.000 C 110.083 66.440,109.543 66.800,109.200 66.800 C 108.857 66.800,108.317 67.160,108.000 67.600 C 107.683 68.040,107.175 68.400,106.872 68.400 C 106.569 68.400,105.817 68.940,105.200 69.600 C 104.583 70.260,103.867 70.800,103.608 70.800 C 103.349 70.800,102.446 71.520,101.600 72.400 C 100.754 73.280,99.854 74.000,99.600 74.000 C 99.346 74.000,98.446 74.720,97.600 75.600 C 96.754 76.480,95.868 77.200,95.629 77.200 C 95.064 77.200,78.000 94.262,78.000 94.826 C 78.000 95.377,77.200 96.169,76.300 96.510 C 75.915 96.656,75.600 97.011,75.600 97.299 C 75.600 97.587,75.240 98.083,74.800 98.400 C 74.360 98.717,74.000 99.276,74.000 99.642 C 74.000 100.007,73.640 100.401,73.200 100.516 C 72.760 100.631,72.400 101.012,72.400 101.363 C 72.400 101.713,72.220 102.000,72.000 102.000 C 71.780 102.000,71.600 102.339,71.600 102.753 C 71.600 103.170,71.243 103.600,70.800 103.716 C 70.360 103.831,70.000 104.212,70.000 104.563 C 70.000 104.913,69.820 105.200,69.600 105.200 C 69.380 105.200,69.200 105.470,69.200 105.800 C 69.200 106.129,68.480 107.141,67.600 108.048 C 66.720 108.955,66.000 109.862,66.000 110.065 C 66.000 110.268,65.640 110.820,65.200 111.292 C 64.760 111.764,64.400 112.495,64.400 112.915 C 64.400 113.335,63.860 114.183,63.200 114.800 C 62.540 115.417,62.000 116.209,62.000 116.560 C 62.000 116.912,61.820 117.200,61.600 117.200 C 61.380 117.200,61.200 117.520,61.200 117.912 C 61.200 118.303,60.840 118.883,60.400 119.200 C 59.960 119.517,59.600 120.097,59.600 120.488 C 59.600 120.880,59.420 121.200,59.200 121.200 C 58.980 121.200,58.800 121.560,58.800 122.000 C 58.800 122.440,58.620 122.800,58.400 122.800 C 58.180 122.800,58.000 123.160,58.000 123.600 C 58.000 124.040,57.820 124.400,57.600 124.400 C 57.380 124.400,57.200 124.760,57.200 125.200 C 57.200 125.640,57.020 126.000,56.800 126.000 C 56.580 126.000,56.400 126.360,56.400 126.800 C 56.400 127.240,56.220 127.600,56.000 127.600 C 55.780 127.600,55.600 127.960,55.600 128.400 C 55.600 128.840,55.420 129.200,55.200 129.200 C 54.980 129.200,54.800 129.560,54.800 130.000 C 54.800 130.440,54.620 130.800,54.400 130.800 C 54.180 130.800,54.000 131.160,54.000 131.600 C 54.000 132.040,53.820 132.400,53.600 132.400 C 53.380 132.400,53.200 132.745,53.200 133.167 C 53.200 133.588,53.003 133.999,52.763 134.079 C 52.523 134.159,52.298 134.714,52.263 135.312 C 52.228 135.910,52.065 136.400,51.900 136.400 C 51.735 136.400,51.600 136.760,51.600 137.200 C 51.600 137.640,51.420 138.000,51.200 138.000 C 50.980 138.000,50.800 138.360,50.800 138.800 C 50.800 139.240,50.620 139.600,50.400 139.600 C 50.180 139.600,50.000 140.125,50.000 140.767 C 50.000 141.408,49.825 141.993,49.612 142.067 C 49.398 142.140,49.173 142.650,49.112 143.200 C 49.050 143.750,48.847 144.311,48.661 144.448 C 48.474 144.584,48.294 145.169,48.261 145.747 C 48.227 146.326,48.065 146.800,47.900 146.800 C 47.735 146.800,47.600 147.145,47.600 147.567 C 47.600 147.988,47.436 148.393,47.235 148.467 C 47.035 148.540,46.810 149.230,46.735 150.000 C 46.661 150.770,46.447 151.511,46.261 151.648 C 46.074 151.784,45.894 152.369,45.861 152.947 C 45.827 153.526,45.665 154.000,45.500 154.000 C 45.335 154.000,45.200 154.540,45.200 155.200 C 45.200 155.860,45.040 156.400,44.845 156.400 C 44.650 156.400,44.391 156.895,44.270 157.500 C 44.149 158.105,43.843 159.410,43.592 160.400 C 43.341 161.390,43.040 162.876,42.925 163.703 C 42.810 164.529,42.555 165.305,42.358 165.426 C 42.161 165.548,42.000 166.436,42.000 167.400 C 42.000 168.364,41.820 169.264,41.600 169.400 C 41.380 169.536,41.200 170.526,41.200 171.600 C 41.200 172.674,41.020 173.664,40.800 173.800 C 40.580 173.936,40.400 175.286,40.400 176.800 C 40.400 178.314,40.220 179.664,40.000 179.800 C 39.451 180.140,39.451 219.860,40.000 220.200 C 40.220 220.336,40.400 221.686,40.400 223.200 C 40.400 224.714,40.580 226.064,40.800 226.200 C 41.020 226.336,41.200 227.326,41.200 228.400 C 41.200 229.474,41.380 230.464,41.600 230.600 C 41.820 230.736,42.000 231.636,42.000 232.600 C 42.000 233.564,42.161 234.452,42.358 234.574 C 42.555 234.695,42.810 235.471,42.925 236.297 C 43.040 237.124,43.341 238.610,43.592 239.600 C 43.843 240.590,44.149 241.895,44.270 242.500 C 44.391 243.105,44.650 243.600,44.845 243.600 C 45.040 243.600,45.200 244.140,45.200 244.800 C 45.200 245.460,45.335 246.000,45.500 246.000 C 45.665 246.000,45.827 246.474,45.861 247.053 C 45.894 247.631,46.074 248.216,46.261 248.352 C 46.447 248.489,46.661 249.230,46.735 250.000 C 46.810 250.770,47.035 251.460,47.235 251.533 C 47.436 251.607,47.600 252.012,47.600 252.433 C 47.600 252.855,47.735 253.200,47.900 253.200 C 48.065 253.200,48.227 253.674,48.261 254.253 C 48.294 254.831,48.474 255.416,48.661 255.552 C 48.847 255.689,49.050 256.250,49.112 256.800 C 49.173 257.350,49.398 257.860,49.612 257.933 C 49.825 258.007,50.000 258.592,50.000 259.233 C 50.000 259.875,50.180 260.400,50.400 260.400 C 50.620 260.400,50.800 260.760,50.800 261.200 C 50.800 261.640,50.980 262.000,51.200 262.000 C 51.420 262.000,51.600 262.360,51.600 262.800 C 51.600 263.240,51.735 263.600,51.900 263.600 C 52.065 263.600,52.228 264.090,52.263 264.688 C 52.298 265.286,52.523 265.841,52.763 265.921 C 53.003 266.001,53.200 266.412,53.200 266.833 C 53.200 267.255,53.380 267.600,53.600 267.600 C 53.820 267.600,54.000 267.960,54.000 268.400 C 54.000 268.840,54.180 269.200,54.400 269.200 C 54.620 269.200,54.800 269.560,54.800 270.000 C 54.800 270.440,54.980 270.800,55.200 270.800 C 55.420 270.800,55.600 271.160,55.600 271.600 C 55.600 272.040,55.780 272.400,56.000 272.400 C 56.220 272.400,56.400 272.760,56.400 273.200 C 56.400 273.640,56.580 274.000,56.800 274.000 C 57.020 274.000,57.200 274.360,57.200 274.800 C 57.200 275.240,57.380 275.600,57.600 275.600 C 57.820 275.600,58.000 275.960,58.000 276.400 C 58.000 276.840,58.180 277.200,58.400 277.200 C 58.620 277.200,58.800 277.560,58.800 278.000 C 58.800 278.440,58.980 278.800,59.200 278.800 C 59.420 278.800,59.600 279.120,59.600 279.512 C 59.600 279.903,59.960 280.483,60.400 280.800 C 60.840 281.117,61.200 281.697,61.200 282.088 C 61.200 282.480,61.380 282.800,61.600 282.800 C 61.820 282.800,62.000 283.088,62.000 283.440 C 62.000 283.791,62.540 284.583,63.200 285.200 C 63.860 285.817,64.400 286.665,64.400 287.085 C 64.400 287.505,64.760 288.236,65.200 288.708 C 65.640 289.180,66.000 289.732,66.000 289.935 C 66.000 290.138,66.720 291.045,67.600 291.952 C 68.480 292.859,69.200 293.871,69.200 294.200 C 69.200 294.530,69.359 294.800,69.553 294.800 C 69.748 294.800,70.001 295.160,70.116 295.600 C 70.231 296.040,70.612 296.400,70.963 296.400 C 71.333 296.400,71.600 296.735,71.600 297.200 C 71.600 297.640,71.759 298.000,71.953 298.000 C 72.148 298.000,72.401 298.360,72.516 298.800 C 72.631 299.240,73.012 299.600,73.363 299.600 C 73.713 299.600,74.000 299.920,74.000 300.312 C 74.000 300.703,74.360 301.283,74.800 301.600 C 75.240 301.917,75.600 302.413,75.600 302.701 C 75.600 302.989,75.915 303.344,76.300 303.490 C 77.200 303.831,78.000 304.623,78.000 305.174 C 78.000 305.738,95.064 322.800,95.629 322.800 C 95.868 322.800,96.754 323.520,97.600 324.400 C 98.446 325.280,99.346 326.000,99.600 326.000 C 99.854 326.000,100.754 326.720,101.600 327.600 C 102.446 328.480,103.349 329.200,103.608 329.200 C 103.867 329.200,104.583 329.740,105.200 330.400 C 105.817 331.060,106.569 331.600,106.872 331.600 C 107.175 331.600,107.683 331.960,108.000 332.400 C 108.317 332.840,108.857 333.200,109.200 333.200 C 109.543 333.200,110.083 333.560,110.400 334.000 C 110.717 334.440,111.257 334.800,111.600 334.800 C 111.943 334.800,112.483 335.160,112.800 335.600 C 113.117 336.040,113.657 336.400,114.000 336.400 C 114.343 336.400,114.883 336.760,115.200 337.200 C 115.517 337.640,116.097 338.000,116.488 338.000 C 116.880 338.000,117.200 338.180,117.200 338.400 C 117.200 338.620,117.520 338.800,117.912 338.800 C 118.303 338.800,118.883 339.160,119.200 339.600 C 119.517 340.040,120.097 340.400,120.488 340.400 C 120.880 340.400,121.200 340.580,121.200 340.800 C 121.200 341.020,121.560 341.200,122.000 341.200 C 122.440 341.200,122.800 341.380,122.800 341.600 C 122.800 341.820,123.160 342.000,123.600 342.000 C 124.040 342.000,124.400 342.180,124.400 342.400 C 124.400 342.620,124.760 342.800,125.200 342.800 C 125.640 342.800,126.000 342.980,126.000 343.200 C 126.000 343.420,126.360 343.600,126.800 343.600 C 127.240 343.600,127.600 343.780,127.600 344.000 C 127.600 344.220,127.960 344.400,128.400 344.400 C 128.840 344.400,129.200 344.580,129.200 344.800 C 129.200 345.020,129.560 345.200,130.000 345.200 C 130.440 345.200,130.800 345.380,130.800 345.600 C 130.800 345.820,131.160 346.000,131.600 346.000 C 132.040 346.000,132.400 346.180,132.400 346.400 C 132.400 346.620,132.760 346.800,133.200 346.800 C 133.640 346.800,134.000 346.980,134.000 347.200 C 134.000 347.420,134.360 347.600,134.800 347.600 C 135.240 347.600,135.600 347.780,135.600 348.000 C 135.600 348.220,136.140 348.400,136.800 348.400 C 137.460 348.400,138.000 348.580,138.000 348.800 C 138.000 349.020,138.360 349.200,138.800 349.200 C 139.240 349.200,139.600 349.380,139.600 349.600 C 139.600 349.820,140.140 350.000,140.800 350.000 C 141.460 350.000,142.000 350.180,142.000 350.400 C 142.000 350.620,142.360 350.800,142.800 350.800 C 143.240 350.800,143.600 350.980,143.600 351.200 C 143.600 351.420,144.140 351.600,144.800 351.600 C 145.460 351.600,146.000 351.780,146.000 352.000 C 146.000 352.220,146.540 352.400,147.200 352.400 C 147.860 352.400,148.400 352.580,148.400 352.800 C 148.400 353.020,148.940 353.200,149.600 353.200 C 150.260 353.200,150.800 353.380,150.800 353.600 C 150.800 353.820,151.340 354.000,152.000 354.000 C 152.660 354.000,153.200 354.180,153.200 354.400 C 153.200 354.620,153.920 354.800,154.800 354.800 C 155.680 354.800,156.400 354.980,156.400 355.200 C 156.400 355.420,156.940 355.600,157.600 355.600 C 158.260 355.600,158.800 355.780,158.800 356.000 C 158.800 356.220,159.520 356.400,160.400 356.400 C 161.280 356.400,162.000 356.580,162.000 356.800 C 162.000 357.020,162.900 357.200,164.000 357.200 C 165.100 357.200,166.000 357.380,166.000 357.600 C 166.000 357.820,166.900 358.000,168.000 358.000 C 169.100 358.000,170.000 358.180,170.000 358.400 C 170.000 358.620,170.900 358.800,172.000 358.800 C 173.100 358.800,174.000 358.980,174.000 359.200 C 174.000 359.433,175.333 359.600,177.200 359.600 C 179.067 359.600,180.400 359.767,180.400 360.000 C 180.400 360.261,187.200 360.400,200.000 360.400 C 212.800 360.400,219.600 360.261,219.600 360.000 C 219.600 359.767,220.933 359.600,222.800 359.600 C 224.667 359.600,226.000 359.433,226.000 359.200 C 226.000 358.980,226.900 358.800,228.000 358.800 C 229.100 358.800,230.000 358.620,230.000 358.400 C 230.000 358.180,230.900 358.000,232.000 358.000 C 233.100 358.000,234.000 357.820,234.000 357.600 C 234.000 357.380,234.900 357.200,236.000 357.200 C 237.100 357.200,238.000 357.020,238.000 356.800 C 238.000 356.580,238.720 356.400,239.600 356.400 C 240.480 356.400,241.200 356.220,241.200 356.000 C 241.200 355.780,241.740 355.600,242.400 355.600 C 243.060 355.600,243.600 355.420,243.600 355.200 C 243.600 354.980,244.320 354.800,245.200 354.800 C 246.080 354.800,246.800 354.620,246.800 354.400 C 246.800 354.180,247.340 354.000,248.000 354.000 C 248.660 354.000,249.200 353.820,249.200 353.600 C 249.200 353.380,249.740 353.200,250.400 353.200 C 251.060 353.200,251.600 353.020,251.600 352.800 C 251.600 352.580,252.140 352.400,252.800 352.400 C 253.460 352.400,254.000 352.220,254.000 352.000 C 254.000 351.780,254.540 351.600,255.200 351.600 C 255.860 351.600,256.400 351.420,256.400 351.200 C 256.400 350.980,256.760 350.800,257.200 350.800 C 257.640 350.800,258.000 350.620,258.000 350.400 C 258.000 350.180,258.540 350.000,259.200 350.000 C 259.860 350.000,260.400 349.820,260.400 349.600 C 260.400 349.380,260.760 349.200,261.200 349.200 C 261.640 349.200,262.000 349.020,262.000 348.800 C 262.000 348.580,262.540 348.400,263.200 348.400 C 263.860 348.400,264.400 348.220,264.400 348.000 C 264.400 347.780,264.760 347.600,265.200 347.600 C 265.640 347.600,266.000 347.420,266.000 347.200 C 266.000 346.980,266.360 346.800,266.800 346.800 C 267.240 346.800,267.600 346.620,267.600 346.400 C 267.600 346.180,267.960 346.000,268.400 346.000 C 268.840 346.000,269.200 345.820,269.200 345.600 C 269.200 345.380,269.560 345.200,270.000 345.200 C 270.440 345.200,270.800 345.020,270.800 344.800 C 270.800 344.580,271.160 344.400,271.600 344.400 C 272.040 344.400,272.400 344.220,272.400 344.000 C 272.400 343.780,272.760 343.600,273.200 343.600 C 273.640 343.600,274.000 343.420,274.000 343.200 C 274.000 342.980,274.360 342.800,274.800 342.800 C 275.240 342.800,275.600 342.620,275.600 342.400 C 275.600 342.180,275.960 342.000,276.400 342.000 C 276.840 342.000,277.200 341.820,277.200 341.600 C 277.200 341.380,277.560 341.200,278.000 341.200 C 278.440 341.200,278.800 341.020,278.800 340.800 C 278.800 340.580,279.120 340.400,279.512 340.400 C 279.903 340.400,280.483 340.040,280.800 339.600 C 281.117 339.160,281.697 338.800,282.088 338.800 C 282.480 338.800,282.800 338.620,282.800 338.400 C 282.800 338.180,283.120 338.000,283.512 338.000 C 283.903 338.000,284.483 337.640,284.800 337.200 C 285.117 336.760,285.657 336.400,286.000 336.400 C 286.343 336.400,286.883 336.040,287.200 335.600 C 287.517 335.160,288.057 334.800,288.400 334.800 C 288.743 334.800,289.283 334.440,289.600 334.000 C 289.917 333.560,290.457 333.200,290.800 333.200 C 291.143 333.200,291.683 332.840,292.000 332.400 C 292.317 331.960,292.825 331.600,293.128 331.600 C 293.431 331.600,294.183 331.060,294.800 330.400 C 295.417 329.740,296.133 329.200,296.392 329.200 C 296.651 329.200,297.554 328.480,298.400 327.600 C 299.246 326.720,300.146 326.000,300.400 326.000 C 300.654 326.000,301.554 325.280,302.400 324.400 C 303.246 323.520,304.132 322.800,304.371 322.800 C 304.936 322.800,322.000 305.738,322.000 305.174 C 322.000 304.623,322.800 303.831,323.700 303.490 C 324.085 303.344,324.400 302.989,324.400 302.701 C 324.400 302.413,324.760 301.917,325.200 301.600 C 325.640 301.283,326.000 300.703,326.000 300.312 C 326.000 299.920,326.287 299.600,326.637 299.600 C 326.988 299.600,327.369 299.240,327.484 298.800 C 327.599 298.360,327.852 298.000,328.047 298.000 C 328.241 298.000,328.400 297.640,328.400 297.200 C 328.400 296.735,328.667 296.400,329.037 296.400 C 329.388 296.400,329.769 296.040,329.884 295.600 C 329.999 295.160,330.252 294.800,330.447 294.800 C 330.641 294.800,330.800 294.530,330.800 294.200 C 330.800 293.871,331.520 292.859,332.400 291.952 C 333.280 291.045,334.000 290.138,334.000 289.935 C 334.000 289.732,334.360 289.180,334.800 288.708 C 335.240 288.236,335.600 287.505,335.600 287.085 C 335.600 286.665,336.140 285.817,336.800 285.200 C 337.460 284.583,338.000 283.791,338.000 283.440 C 338.000 283.088,338.180 282.800,338.400 282.800 C 338.620 282.800,338.800 282.480,338.800 282.088 C 338.800 281.697,339.160 281.117,339.600 280.800 C 340.040 280.483,340.400 279.903,340.400 279.512 C 340.400 279.120,340.580 278.800,340.800 278.800 C 341.020 278.800,341.200 278.440,341.200 278.000 C 341.200 277.560,341.380 277.200,341.600 277.200 C 341.820 277.200,342.000 276.840,342.000 276.400 C 342.000 275.960,342.180 275.600,342.400 275.600 C 342.620 275.600,342.800 275.240,342.800 274.800 C 342.800 274.360,342.980 274.000,343.200 274.000 C 343.420 274.000,343.600 273.640,343.600 273.200 C 343.600 272.760,343.780 272.400,344.000 272.400 C 344.220 272.400,344.400 272.040,344.400 271.600 C 344.400 271.160,344.580 270.800,344.800 270.800 C 345.020 270.800,345.200 270.440,345.200 270.000 C 345.200 269.560,345.380 269.200,345.600 269.200 C 345.820 269.200,346.000 268.840,346.000 268.400 C 346.000 267.960,346.180 267.600,346.400 267.600 C 346.620 267.600,346.800 267.255,346.800 266.833 C 346.800 266.412,346.997 266.001,347.237 265.921 C 347.477 265.841,347.702 265.286,347.737 264.688 C 347.772 264.090,347.935 263.600,348.100 263.600 C 348.265 263.600,348.400 263.240,348.400 262.800 C 348.400 262.360,348.580 262.000,348.800 262.000 C 349.020 262.000,349.200 261.640,349.200 261.200 C 349.200 260.760,349.380 260.400,349.600 260.400 C 349.820 260.400,350.000 259.875,350.000 259.233 C 350.000 258.592,350.175 258.007,350.388 257.933 C 350.602 257.860,350.827 257.350,350.888 256.800 C 350.950 256.250,351.153 255.689,351.339 255.552 C 351.526 255.416,351.706 254.831,351.739 254.253 C 351.773 253.674,351.935 253.200,352.100 253.200 C 352.265 253.200,352.400 252.855,352.400 252.433 C 352.400 252.012,352.564 251.607,352.765 251.533 C 352.965 251.460,353.190 250.770,353.265 250.000 C 353.339 249.230,353.553 248.489,353.739 248.352 C 353.926 248.216,354.106 247.631,354.139 247.053 C 354.173 246.474,354.335 246.000,354.500 246.000 C 354.665 246.000,354.800 245.460,354.800 244.800 C 354.800 244.140,354.960 243.600,355.155 243.600 C 355.350 243.600,355.609 243.105,355.730 242.500 C 355.851 241.895,356.157 240.590,356.408 239.600 C 356.659 238.610,356.960 237.124,357.075 236.297 C 357.190 235.471,357.445 234.695,357.642 234.574 C 357.839 234.452,358.000 233.564,358.000 232.600 C 358.000 231.636,358.180 230.736,358.400 230.600 C 358.620 230.464,358.800 229.474,358.800 228.400 C 358.800 227.326,358.980 226.336,359.200 226.200 C 359.420 226.064,359.600 224.714,359.600 223.200 C 359.600 221.686,359.780 220.336,360.000 220.200 C 360.258 220.041,360.400 212.870,360.400 200.000 C 360.400 187.130,360.258 179.959,360.000 179.800 C 359.780 179.664,359.600 178.314,359.600 176.800 C 359.600 175.286,359.420 173.936,359.200 173.800 C 358.980 173.664,358.800 172.674,358.800 171.600 C 358.800 170.526,358.620 169.536,358.400 169.400 C 358.180 169.264,358.000 168.364,358.000 167.400 C 358.000 166.436,357.839 165.548,357.642 165.426 C 357.445 165.305,357.190 164.529,357.075 163.703 C 356.960 162.876,356.659 161.390,356.408 160.400 C 356.157 159.410,355.851 158.105,355.730 157.500 C 355.609 156.895,355.350 156.400,355.155 156.400 C 354.960 156.400,354.800 155.860,354.800 155.200 C 354.800 154.540,354.665 154.000,354.500 154.000 C 354.335 154.000,354.173 153.526,354.139 152.947 C 354.106 152.369,353.926 151.784,353.739 151.648 C 353.553 151.511,353.339 150.770,353.265 150.000 C 353.190 149.230,352.965 148.540,352.765 148.467 C 352.564 148.393,352.400 147.988,352.400 147.567 C 352.400 147.145,352.265 146.800,352.100 146.800 C 351.935 146.800,351.773 146.326,351.739 145.747 C 351.706 145.169,351.526 144.584,351.339 144.448 C 351.153 144.311,350.950 143.750,350.888 143.200 C 350.827 142.650,350.602 142.140,350.388 142.067 C 350.175 141.993,350.000 141.408,350.000 140.767 C 350.000 140.125,349.820 139.600,349.600 139.600 C 349.380 139.600,349.200 139.240,349.200 138.800 C 349.200 138.360,349.020 138.000,348.800 138.000 C 348.580 138.000,348.400 137.640,348.400 137.200 C 348.400 136.760,348.265 136.400,348.100 136.400 C 347.935 136.400,347.772 135.910,347.737 135.312 C 347.702 134.714,347.477 134.159,347.237 134.079 C 346.997 133.999,346.800 133.588,346.800 133.167 C 346.800 132.745,346.620 132.400,346.400 132.400 C 346.180 132.400,346.000 132.040,346.000 131.600 C 346.000 131.160,345.820 130.800,345.600 130.800 C 345.380 130.800,345.200 130.440,345.200 130.000 C 345.200 129.560,345.020 129.200,344.800 129.200 C 344.580 129.200,344.400 128.840,344.400 128.400 C 344.400 127.960,344.220 127.600,344.000 127.600 C 343.780 127.600,343.600 127.240,343.600 126.800 C 343.600 126.360,343.420 126.000,343.200 126.000 C 342.980 126.000,342.800 125.640,342.800 125.200 C 342.800 124.760,342.620 124.400,342.400 124.400 C 342.180 124.400,342.000 124.040,342.000 123.600 C 342.000 123.160,341.820 122.800,341.600 122.800 C 341.380 122.800,341.200 122.440,341.200 122.000 C 341.200 121.560,341.020 121.200,340.800 121.200 C 340.580 121.200,340.400 120.880,340.400 120.488 C 340.400 120.097,340.040 119.517,339.600 119.200 C 339.160 118.883,338.800 118.303,338.800 117.912 C 338.800 117.520,338.620 117.200,338.400 117.200 C 338.180 117.200,338.000 116.912,338.000 116.560 C 338.000 116.209,337.460 115.417,336.800 114.800 C 336.140 114.183,335.600 113.335,335.600 112.915 C 335.600 112.495,335.240 111.764,334.800 111.292 C 334.360 110.820,334.000 110.268,334.000 110.065 C 334.000 109.862,333.280 108.955,332.400 108.048 C 331.520 107.141,330.800 106.129,330.800 105.800 C 330.800 105.470,330.641 105.200,330.447 105.200 C 330.252 105.200,329.999 104.840,329.884 104.400 C 329.769 103.960,329.388 103.600,329.037 103.600 C 328.667 103.600,328.400 103.265,328.400 102.800 C 328.400 102.360,328.241 102.000,328.047 102.000 C 327.852 102.000,327.599 101.640,327.484 101.200 C 327.369 100.760,326.988 100.400,326.637 100.400 C 326.287 100.400,326.000 100.080,326.000 99.688 C 326.000 99.297,325.640 98.717,325.200 98.400 C 324.760 98.083,324.400 97.587,324.400 97.299 C 324.400 97.011,324.085 96.656,323.700 96.510 C 322.800 96.169,322.000 95.377,322.000 94.826 C 322.000 94.262,304.936 77.200,304.371 77.200 C 304.132 77.200,303.246 76.480,302.400 75.600 C 301.554 74.720,300.654 74.000,300.400 74.000 C 300.146 74.000,299.246 73.280,298.400 72.400 C 297.554 71.520,296.651 70.800,296.392 70.800 C 296.133 70.800,295.417 70.260,294.800 69.600 C 294.183 68.940,293.431 68.400,293.128 68.400 C 292.825 68.400,292.317 68.040,292.000 67.600 C 291.683 67.160,291.143 66.800,290.800 66.800 C 290.457 66.800,289.917 66.440,289.600 66.000 C 289.283 65.560,288.743 65.200,288.400 65.200 C 288.057 65.200,287.517 64.840,287.200 64.400 C 286.883 63.960,286.343 63.600,286.000 63.600 C 285.657 63.600,285.117 63.240,284.800 62.800 C 284.483 62.360,283.903 62.000,283.512 62.000 C 283.120 62.000,282.800 61.820,282.800 61.600 C 282.800 61.380,282.480 61.200,282.088 61.200 C 281.697 61.200,281.117 60.840,280.800 60.400 C 280.483 59.960,279.903 59.600,279.512 59.600 C 279.120 59.600,278.800 59.420,278.800 59.200 C 278.800 58.980,278.440 58.800,278.000 58.800 C 277.560 58.800,277.200 58.620,277.200 58.400 C 277.200 58.180,276.840 58.000,276.400 58.000 C 275.960 58.000,275.600 57.820,275.600 57.600 C 275.600 57.380,275.240 57.200,274.800 57.200 C 274.360 57.200,274.000 57.020,274.000 56.800 C 274.000 56.580,273.640 56.400,273.200 56.400 C 272.760 56.400,272.400 56.220,272.400 56.000 C 272.400 55.780,272.040 55.600,271.600 55.600 C 271.160 55.600,270.800 55.420,270.800 55.200 C 270.800 54.980,270.440 54.800,270.000 54.800 C 269.560 54.800,269.200 54.620,269.200 54.400 C 269.200 54.180,268.840 54.000,268.400 54.000 C 267.960 54.000,267.600 53.820,267.600 53.600 C 267.600 53.380,267.240 53.200,266.800 53.200 C 266.360 53.200,266.000 53.020,266.000 52.800 C 266.000 52.580,265.640 52.400,265.200 52.400 C 264.760 52.400,264.400 52.220,264.400 52.000 C 264.400 51.780,263.860 51.600,263.200 51.600 C 262.540 51.600,262.000 51.420,262.000 51.200 C 262.000 50.980,261.640 50.800,261.200 50.800 C 260.760 50.800,260.400 50.620,260.400 50.400 C 260.400 50.180,259.860 50.000,259.200 50.000 C 258.540 50.000,258.000 49.820,258.000 49.600 C 258.000 49.380,257.640 49.200,257.200 49.200 C 256.760 49.200,256.400 49.020,256.400 48.800 C 256.400 48.580,255.860 48.400,255.200 48.400 C 254.540 48.400,254.000 48.220,254.000 48.000 C 254.000 47.780,253.460 47.600,252.800 47.600 C 252.140 47.600,251.600 47.420,251.600 47.200 C 251.600 46.980,251.060 46.800,250.400 46.800 C 249.740 46.800,249.200 46.620,249.200 46.400 C 249.200 46.180,248.660 46.000,248.000 46.000 C 247.340 46.000,246.800 45.820,246.800 45.600 C 246.800 45.380,246.080 45.200,245.200 45.200 C 244.320 45.200,243.600 45.020,243.600 44.800 C 243.600 44.580,243.060 44.400,242.400 44.400 C 241.740 44.400,241.200 44.220,241.200 44.000 C 241.200 43.780,240.480 43.600,239.600 43.600 C 238.720 43.600,238.000 43.420,238.000 43.200 C 238.000 42.980,237.100 42.800,236.000 42.800 C 234.900 42.800,234.000 42.620,234.000 42.400 C 234.000 42.180,233.100 42.000,232.000 42.000 C 230.900 42.000,230.000 41.820,230.000 41.600 C 230.000 41.380,229.100 41.200,228.000 41.200 C 226.900 41.200,226.000 41.020,226.000 40.800 C 226.000 40.567,224.667 40.400,222.800 40.400 C 220.933 40.400,219.600 40.233,219.600 40.000 C 219.600 39.739,212.800 39.600,200.000 39.600 C 187.200 39.600,180.400 39.739,180.400 40.000 M218.200 54.991 C 226.078 56.039,238.431 58.690,243.200 60.358 C 243.750 60.550,245.010 60.941,246.000 61.226 C 246.990 61.511,247.980 61.854,248.200 61.989 C 248.420 62.123,249.320 62.463,250.200 62.743 C 251.080 63.023,252.205 63.421,252.700 63.626 C 253.195 63.832,254.050 64.180,254.600 64.400 C 255.150 64.620,256.005 64.965,256.500 65.167 C 260.608 66.845,273.556 73.541,276.600 75.562 C 277.480 76.146,278.659 76.855,279.220 77.137 C 280.181 77.620,281.577 78.616,288.795 83.967 C 297.802 90.645,309.372 102.219,316.060 111.241 C 321.396 118.439,322.381 119.820,322.863 120.780 C 323.145 121.341,323.854 122.520,324.438 123.400 C 326.763 126.902,335.200 143.357,335.200 144.390 C 335.200 144.637,335.520 145.505,335.912 146.319 C 336.639 147.830,340.352 159.142,341.191 162.400 C 341.446 163.390,341.815 164.740,342.010 165.400 C 346.945 182.024,346.945 217.976,342.010 234.600 C 341.815 235.260,341.446 236.610,341.191 237.600 C 340.352 240.858,336.639 252.170,335.912 253.681 C 335.520 254.495,335.200 255.363,335.200 255.610 C 335.200 256.643,326.763 273.098,324.438 276.600 C 323.854 277.480,323.145 278.659,322.863 279.220 C 322.381 280.180,321.396 281.561,316.060 288.759 C 309.372 297.781,297.802 309.355,288.795 316.033 C 281.577 321.384,280.181 322.380,279.220 322.863 C 278.659 323.145,277.480 323.854,276.600 324.438 C 273.835 326.274,271.604 327.478,264.400 331.022 C 257.727 334.304,256.782 334.745,254.700 335.546 C 254.205 335.737,253.350 336.085,252.800 336.320 C 252.250 336.555,251.080 336.977,250.200 337.257 C 249.320 337.537,248.420 337.877,248.200 338.011 C 247.980 338.146,246.990 338.489,246.000 338.774 C 245.010 339.059,243.750 339.450,243.200 339.642 C 222.126 347.011,188.832 347.841,164.200 341.611 C 160.680 340.720,157.350 339.835,156.800 339.642 C 156.250 339.450,154.990 339.059,154.000 338.774 C 153.010 338.489,152.020 338.146,151.800 338.011 C 151.580 337.877,150.680 337.537,149.800 337.257 C 148.920 336.977,147.750 336.555,147.200 336.320 C 146.650 336.085,145.795 335.737,145.300 335.546 C 143.218 334.745,142.273 334.304,135.600 331.022 C 128.396 327.478,126.165 326.274,123.400 324.438 C 122.520 323.854,121.341 323.145,120.780 322.863 C 119.819 322.380,118.423 321.384,111.205 316.033 C 102.198 309.355,90.628 297.781,83.940 288.759 C 78.604 281.561,77.619 280.180,77.137 279.220 C 76.855 278.659,76.146 277.480,75.562 276.600 C 73.237 273.098,64.800 256.643,64.800 255.610 C 64.800 255.363,64.480 254.495,64.088 253.681 C 63.361 252.170,59.648 240.858,58.809 237.600 C 58.554 236.610,58.185 235.260,57.990 234.600 C 53.055 217.976,53.055 182.024,57.990 165.400 C 58.185 164.740,58.554 163.390,58.809 162.400 C 59.648 159.142,63.361 147.830,64.088 146.319 C 64.480 145.505,64.800 144.637,64.800 144.390 C 64.800 143.357,73.237 126.902,75.562 123.400 C 76.146 122.520,76.855 121.341,77.137 120.780 C 77.619 119.820,78.604 118.439,83.940 111.241 C 90.628 102.219,102.198 90.645,111.205 83.967 C 118.423 78.616,119.819 77.620,120.780 77.137 C 121.341 76.855,122.520 76.146,123.400 75.562 C 126.441 73.543,139.814 66.629,143.400 65.221 C 144.160 64.923,145.291 64.460,147.300 63.626 C 147.795 63.421,148.920 63.023,149.800 62.743 C 150.680 62.463,151.580 62.123,151.800 61.989 C 152.020 61.854,153.010 61.506,154.000 61.214 C 154.990 60.923,156.520 60.459,157.400 60.183 C 158.280 59.907,161.970 58.951,165.600 58.060 C 171.526 56.604,174.803 55.985,182.600 54.847 C 186.858 54.225,213.245 54.333,218.200 54.991 " stroke="none" fill="#0474dc" fill-rule="evenodd"></path><path id="path2" d="M183.400 54.814 C 182.462 54.991,183.290 55.028,185.400 54.904 C 187.380 54.789,189.075 54.628,189.167 54.547 C 189.452 54.295,185.083 54.498,183.400 54.814 M210.833 54.547 C 210.925 54.628,212.620 54.792,214.600 54.911 C 217.137 55.064,217.669 55.030,216.400 54.794 C 214.581 54.456,210.526 54.276,210.833 54.547 M177.400 55.620 C 176.611 55.835,177.022 55.870,178.600 55.723 C 179.920 55.600,181.075 55.432,181.167 55.350 C 181.464 55.082,178.634 55.285,177.400 55.620 M218.833 55.350 C 218.925 55.432,220.080 55.600,221.400 55.723 C 222.978 55.870,223.389 55.835,222.600 55.620 C 221.366 55.285,218.536 55.082,218.833 55.350 M172.600 56.400 C 170.937 56.823,172.574 56.842,174.600 56.423 C 175.945 56.145,176.009 56.092,175.000 56.093 C 174.340 56.094,173.260 56.232,172.600 56.400 M225.400 56.423 C 227.426 56.842,229.063 56.823,227.400 56.400 C 226.740 56.232,225.660 56.094,225.000 56.093 C 223.991 56.092,224.055 56.145,225.400 56.423 M169.000 57.200 C 167.981 57.638,169.032 57.638,170.400 57.200 C 171.204 56.943,171.243 56.877,170.600 56.868 C 170.160 56.862,169.440 57.011,169.000 57.200 M229.600 57.200 C 230.968 57.638,232.019 57.638,231.000 57.200 C 230.560 57.011,229.840 56.862,229.400 56.868 C 228.757 56.877,228.796 56.943,229.600 57.200 M165.800 58.000 C 165.296 58.217,165.222 58.344,165.600 58.344 C 165.930 58.344,166.560 58.189,167.000 58.000 C 167.504 57.783,167.578 57.656,167.200 57.656 C 166.870 57.656,166.240 57.811,165.800 58.000 M233.000 58.000 C 233.440 58.189,234.070 58.344,234.400 58.344 C 234.778 58.344,234.704 58.217,234.200 58.000 C 233.760 57.811,233.130 57.656,232.800 57.656 C 232.422 57.656,232.496 57.783,233.000 58.000 M162.600 58.800 C 162.096 59.017,162.022 59.144,162.400 59.144 C 162.730 59.144,163.360 58.989,163.800 58.800 C 164.304 58.583,164.378 58.456,164.000 58.456 C 163.670 58.456,163.040 58.611,162.600 58.800 M236.200 58.800 C 236.640 58.989,237.270 59.144,237.600 59.144 C 237.978 59.144,237.904 59.017,237.400 58.800 C 236.960 58.611,236.330 58.456,236.000 58.456 C 235.622 58.456,235.696 58.583,236.200 58.800 M159.400 59.600 C 158.896 59.817,158.822 59.944,159.200 59.944 C 159.530 59.944,160.160 59.789,160.600 59.600 C 161.104 59.383,161.178 59.256,160.800 59.256 C 160.470 59.256,159.840 59.411,159.400 59.600 M239.400 59.600 C 239.840 59.789,240.470 59.944,240.800 59.944 C 241.178 59.944,241.104 59.817,240.600 59.600 C 240.160 59.411,239.530 59.256,239.200 59.256 C 238.822 59.256,238.896 59.383,239.400 59.600 M156.800 60.400 C 156.267 60.745,156.267 60.788,156.800 60.788 C 157.130 60.788,157.670 60.613,158.000 60.400 C 158.533 60.055,158.533 60.012,158.000 60.012 C 157.670 60.012,157.130 60.187,156.800 60.400 M242.000 60.400 C 242.330 60.613,242.870 60.788,243.200 60.788 C 243.733 60.788,243.733 60.745,243.200 60.400 C 242.870 60.187,242.330 60.012,242.000 60.012 C 241.467 60.012,241.467 60.055,242.000 60.400 M149.600 62.800 C 149.067 63.145,149.067 63.188,149.600 63.188 C 149.930 63.188,150.470 63.013,150.800 62.800 C 151.333 62.455,151.333 62.412,150.800 62.412 C 150.470 62.412,149.930 62.587,149.600 62.800 M249.200 62.800 C 249.530 63.013,250.070 63.188,250.400 63.188 C 250.933 63.188,250.933 63.145,250.400 62.800 C 250.070 62.587,249.530 62.412,249.200 62.412 C 248.667 62.412,248.667 62.455,249.200 62.800 M128.000 72.836 C 127.336 73.379,127.269 73.515,127.800 73.240 C 129.105 72.566,129.828 72.012,129.400 72.015 C 129.180 72.017,128.550 72.386,128.000 72.836 M270.800 72.420 C 272.187 73.361,272.978 73.635,272.000 72.836 C 271.450 72.386,270.820 72.017,270.600 72.015 C 270.380 72.013,270.470 72.196,270.800 72.420 M125.200 74.436 C 124.536 74.979,124.469 75.115,125.000 74.840 C 126.305 74.166,127.028 73.612,126.600 73.615 C 126.380 73.617,125.750 73.986,125.200 74.436 M273.600 74.020 C 274.987 74.961,275.778 75.235,274.800 74.436 C 274.250 73.986,273.620 73.617,273.400 73.615 C 273.180 73.613,273.270 73.796,273.600 74.020 M119.029 78.208 C 117.944 78.958,116.774 79.869,116.429 80.232 C 116.083 80.596,116.700 80.271,117.800 79.510 C 118.900 78.750,120.245 77.829,120.789 77.464 C 121.333 77.099,121.603 76.810,121.389 76.822 C 121.175 76.834,120.113 77.458,119.029 78.208 M279.211 77.464 C 279.755 77.829,281.074 78.742,282.142 79.493 C 283.210 80.244,283.964 80.665,283.817 80.427 C 283.494 79.905,278.971 76.800,278.533 76.800 C 278.362 76.800,278.667 77.099,279.211 77.464 M112.785 82.829 L 111.400 84.058 112.900 82.981 C 114.226 82.030,114.657 81.600,114.285 81.600 C 114.222 81.600,113.547 82.153,112.785 82.829 M285.600 81.725 C 285.600 81.824,286.261 82.409,287.068 83.025 C 287.876 83.641,288.411 83.941,288.256 83.691 C 287.940 83.179,285.600 81.447,285.600 81.725 M108.278 86.209 C 106.805 87.424,105.600 88.510,105.600 88.623 C 105.600 88.737,106.725 87.902,108.100 86.770 C 111.058 84.333,111.426 84.000,111.158 84.000 C 111.047 84.000,109.751 84.994,108.278 86.209 M289.000 84.290 C 289.220 84.521,290.570 85.643,292.000 86.783 C 294.112 88.467,294.262 88.542,292.800 87.184 C 291.163 85.664,288.051 83.294,289.000 84.290 M99.128 94.358 C 95.962 97.415,92.317 101.150,91.030 102.658 C 89.742 104.166,90.613 103.381,92.965 100.913 C 95.318 98.445,99.078 94.712,101.322 92.616 C 103.565 90.521,105.284 88.805,105.142 88.803 C 105.000 88.801,102.294 91.301,99.128 94.358 M298.678 92.551 C 300.922 94.682,304.612 98.360,306.878 100.723 C 309.145 103.087,310.464 104.386,309.808 103.610 C 307.588 100.984,300.216 93.557,297.400 91.110 C 295.860 89.771,296.435 90.420,298.678 92.551 M86.716 107.700 C 84.446 110.430,83.864 111.200,84.071 111.200 C 84.164 111.200,85.277 109.940,86.544 108.400 C 87.811 106.860,88.761 105.600,88.655 105.600 C 88.549 105.600,87.676 106.545,86.716 107.700 M313.447 108.300 C 314.719 109.895,315.826 111.200,315.907 111.200 C 316.188 111.200,314.478 108.990,312.811 107.200 C 311.687 105.993,311.897 106.355,313.447 108.300 M83.144 112.300 C 81.993 113.689,81.506 114.400,81.704 114.400 C 81.814 114.400,82.386 113.770,82.973 113.000 C 84.063 111.571,84.195 111.032,83.144 112.300 M316.975 112.932 C 317.591 113.739,318.176 114.400,318.275 114.400 C 318.553 114.400,316.821 112.060,316.309 111.744 C 316.059 111.589,316.359 112.124,316.975 112.932 M79.923 116.700 C 78.901 117.892,76.715 121.248,76.864 121.398 C 76.942 121.476,77.862 120.293,78.908 118.770 C 80.753 116.084,81.155 115.265,79.923 116.700 M321.059 118.723 C 322.123 120.272,323.056 121.477,323.133 121.400 C 323.322 121.212,320.115 116.518,319.564 116.178 C 319.323 116.029,319.996 117.174,321.059 118.723 M74.214 125.435 C 73.841 126.004,73.627 126.561,73.739 126.672 C 73.850 126.783,74.229 126.318,74.581 125.637 C 75.359 124.133,75.144 124.015,74.214 125.435 M325.386 125.500 C 325.735 126.215,326.106 126.800,326.210 126.800 C 326.608 126.800,326.352 126.163,325.567 125.200 L 324.752 124.200 325.386 125.500 M72.614 128.235 C 72.241 128.804,72.005 129.338,72.089 129.422 C 72.173 129.507,72.558 129.041,72.944 128.388 C 73.806 126.928,73.548 126.809,72.614 128.235 M326.760 127.800 C 327.434 129.105,327.988 129.828,327.985 129.400 C 327.983 129.180,327.614 128.550,327.164 128.000 C 326.621 127.336,326.485 127.269,326.760 127.800 M65.455 142.655 C 65.076 143.449,64.848 144.181,64.949 144.282 C 65.049 144.383,65.441 143.814,65.818 143.018 C 66.196 142.222,66.423 141.490,66.324 141.391 C 66.225 141.291,65.833 141.860,65.455 142.655 M333.618 141.439 C 333.593 142.057,334.844 144.489,335.071 144.263 C 335.174 144.160,334.893 143.384,334.447 142.538 C 334.000 141.692,333.627 141.197,333.618 141.439 M59.473 159.353 C 59.323 159.745,59.211 160.366,59.225 160.733 C 59.242 161.175,59.381 161.074,59.637 160.434 C 59.849 159.903,59.961 159.282,59.885 159.054 C 59.809 158.827,59.624 158.961,59.473 159.353 M340.034 159.200 C 340.046 159.530,340.211 160.160,340.400 160.600 L 340.744 161.400 340.766 160.600 C 340.778 160.160,340.613 159.530,340.400 159.200 C 340.055 158.667,340.015 158.667,340.034 159.200 M58.673 162.553 C 58.523 162.945,58.411 163.566,58.425 163.933 C 58.442 164.375,58.581 164.274,58.837 163.634 C 59.049 163.103,59.161 162.482,59.085 162.254 C 59.009 162.027,58.824 162.161,58.673 162.553 M340.834 162.400 C 340.846 162.730,341.011 163.360,341.200 163.800 L 341.544 164.600 341.566 163.800 C 341.578 163.360,341.413 162.730,341.200 162.400 C 340.855 161.867,340.815 161.867,340.834 162.400 M57.873 165.753 C 57.723 166.145,57.611 166.766,57.625 167.133 C 57.642 167.575,57.781 167.474,58.037 166.834 C 58.249 166.303,58.361 165.682,58.285 165.454 C 58.209 165.227,58.024 165.361,57.873 165.753 M341.634 165.600 C 341.646 165.930,341.811 166.560,342.000 167.000 L 342.344 167.800 342.366 167.000 C 342.378 166.560,342.213 165.930,342.000 165.600 C 341.655 165.067,341.615 165.067,341.634 165.600 M57.022 169.422 C 56.872 170.225,56.838 170.972,56.948 171.082 C 57.058 171.192,57.272 170.625,57.422 169.822 C 57.573 169.019,57.606 168.273,57.496 168.163 C 57.386 168.053,57.173 168.619,57.022 169.422 M342.468 168.800 C 342.462 169.350,342.611 170.160,342.800 170.600 L 343.144 171.400 343.132 170.600 C 343.126 170.160,342.976 169.350,342.800 168.800 L 342.480 167.800 342.468 168.800 M56.218 173.418 C 56.065 174.439,56.022 175.355,56.122 175.455 C 56.222 175.555,56.429 174.802,56.582 173.782 C 56.735 172.761,56.778 171.845,56.678 171.745 C 56.578 171.645,56.371 172.398,56.218 173.418 M343.295 172.400 C 343.295 172.950,343.432 173.940,343.600 174.600 C 343.872 175.670,343.905 175.692,343.905 174.800 C 343.905 174.250,343.768 173.260,343.600 172.600 C 343.328 171.530,343.295 171.508,343.295 172.400 M55.400 178.400 C 55.244 179.747,55.201 180.934,55.305 181.038 C 55.409 181.142,55.619 180.122,55.771 178.771 C 55.924 177.421,55.967 176.234,55.867 176.133 C 55.766 176.033,55.556 177.053,55.400 178.400 M344.076 176.800 C 344.067 177.350,344.203 178.610,344.380 179.600 C 344.620 180.950,344.707 181.100,344.727 180.200 C 344.742 179.540,344.605 178.280,344.423 177.400 C 344.216 176.398,344.086 176.174,344.076 176.800 M54.594 184.938 C 54.438 186.805,54.391 188.573,54.490 188.866 C 54.588 189.160,54.796 187.713,54.952 185.651 C 55.108 183.590,55.155 181.822,55.056 181.723 C 54.957 181.624,54.749 183.071,54.594 184.938 M345.085 185.200 C 345.204 187.290,345.369 189.075,345.451 189.167 C 345.715 189.461,345.541 185.465,345.200 183.400 C 344.964 181.974,344.931 182.490,345.085 185.200 M54.435 212.633 C 54.454 213.715,54.619 215.500,54.800 216.600 C 55.036 218.026,55.069 217.510,54.915 214.800 C 54.684 210.750,54.377 209.360,54.435 212.633 M345.048 214.349 C 344.892 216.410,344.845 218.178,344.944 218.277 C 345.195 218.528,345.729 211.788,345.510 211.134 C 345.412 210.840,345.204 212.287,345.048 214.349 M55.273 219.800 C 55.258 220.460,55.395 221.720,55.577 222.600 C 56.013 224.706,56.050 222.814,55.620 220.400 C 55.380 219.050,55.293 218.900,55.273 219.800 M344.229 221.229 C 344.076 222.579,344.033 223.766,344.133 223.867 C 344.234 223.967,344.444 222.947,344.600 221.600 C 344.756 220.253,344.799 219.066,344.695 218.962 C 344.591 218.858,344.381 219.878,344.229 221.229 M56.095 225.200 C 56.095 225.750,56.232 226.740,56.400 227.400 C 56.672 228.470,56.705 228.492,56.705 227.600 C 56.705 227.050,56.568 226.060,56.400 225.400 C 56.128 224.330,56.095 224.308,56.095 225.200 M343.418 226.218 C 343.265 227.239,343.222 228.155,343.322 228.255 C 343.422 228.355,343.629 227.602,343.782 226.582 C 343.935 225.561,343.978 224.645,343.878 224.545 C 343.778 224.445,343.571 225.198,343.418 226.218 M56.868 229.400 C 56.874 229.840,57.024 230.650,57.200 231.200 L 57.520 232.200 57.532 231.200 C 57.538 230.650,57.389 229.840,57.200 229.400 L 56.856 228.600 56.868 229.400 M342.578 230.178 C 342.427 230.981,342.394 231.727,342.504 231.837 C 342.614 231.947,342.827 231.381,342.978 230.578 C 343.128 229.775,343.162 229.028,343.052 228.918 C 342.942 228.808,342.728 229.375,342.578 230.178 M57.634 233.000 C 57.622 233.440,57.787 234.070,58.000 234.400 C 58.514 235.195,58.514 234.196,58.000 233.000 L 57.656 232.200 57.634 233.000 M341.829 233.429 C 341.681 234.015,341.651 234.584,341.761 234.694 C 341.871 234.804,342.081 234.415,342.229 233.829 C 342.376 233.242,342.406 232.673,342.296 232.563 C 342.186 232.453,341.976 232.842,341.829 233.429 M58.434 236.200 C 58.422 236.640,58.587 237.270,58.800 237.600 C 59.314 238.395,59.314 237.396,58.800 236.200 L 58.456 235.400 58.434 236.200 M341.029 236.629 C 340.881 237.215,340.851 237.784,340.961 237.894 C 341.071 238.004,341.281 237.615,341.429 237.029 C 341.576 236.442,341.606 235.873,341.496 235.763 C 341.386 235.653,341.176 236.042,341.029 236.629 M59.234 239.400 C 59.222 239.840,59.387 240.470,59.600 240.800 C 60.114 241.595,60.114 240.596,59.600 239.400 L 59.256 238.600 59.234 239.400 M340.229 239.829 C 340.081 240.415,340.051 240.984,340.161 241.094 C 340.271 241.204,340.481 240.815,340.629 240.229 C 340.776 239.642,340.806 239.073,340.696 238.963 C 340.586 238.853,340.376 239.242,340.229 239.829 M64.817 255.900 C 64.826 256.065,65.178 256.830,65.600 257.600 C 66.521 259.282,66.665 258.655,65.771 256.861 C 65.167 255.652,64.781 255.263,64.817 255.900 M334.242 256.837 C 333.306 258.713,333.490 259.276,334.447 257.462 C 334.893 256.616,335.174 255.840,335.071 255.737 C 334.968 255.634,334.595 256.129,334.242 256.837 M72.015 270.600 C 72.017 270.820,72.386 271.450,72.836 272.000 C 73.379 272.664,73.515 272.731,73.240 272.200 C 72.566 270.895,72.012 270.172,72.015 270.600 M327.053 271.700 L 326.333 273.000 327.158 272.000 C 327.889 271.113,328.214 270.400,327.886 270.400 C 327.824 270.400,327.449 270.985,327.053 271.700 M73.609 273.500 C 73.614 273.665,73.985 274.250,74.433 274.800 L 75.248 275.800 74.614 274.500 C 74.011 273.265,73.589 272.845,73.609 273.500 M325.386 274.500 L 324.752 275.800 325.567 274.800 C 326.352 273.837,326.608 273.200,326.210 273.200 C 326.106 273.200,325.735 273.785,325.386 274.500 M76.800 278.555 C 76.800 278.991,79.928 283.509,80.455 283.834 C 80.708 283.990,80.054 282.876,79.002 281.359 C 76.779 278.152,76.800 278.178,76.800 278.555 M321.059 281.277 C 319.996 282.826,319.323 283.971,319.564 283.822 C 320.115 283.482,323.322 278.788,323.133 278.600 C 323.056 278.523,322.123 279.728,321.059 281.277 M82.391 286.788 C 82.857 287.441,83.442 288.102,83.691 288.256 C 83.941 288.411,83.641 287.876,83.025 287.068 C 81.688 285.315,81.184 285.092,82.391 286.788 M316.975 287.068 C 316.359 287.876,316.059 288.411,316.309 288.256 C 316.821 287.940,318.553 285.600,318.275 285.600 C 318.176 285.600,317.591 286.261,316.975 287.068 M84.729 289.900 C 85.160 290.505,86.267 291.810,87.189 292.800 C 88.313 294.007,88.103 293.645,86.553 291.700 C 84.243 288.803,83.248 287.821,84.729 289.900 M313.447 291.700 C 311.897 293.645,311.687 294.007,312.811 292.800 C 314.478 291.010,316.188 288.800,315.907 288.800 C 315.826 288.800,314.719 290.105,313.447 291.700 M91.112 297.400 C 93.546 300.203,100.961 307.567,103.607 309.808 C 104.381 310.464,103.266 309.329,101.129 307.287 C 98.992 305.245,95.316 301.555,92.961 299.087 C 90.607 296.619,89.774 295.860,91.112 297.400 M302.856 303.139 C 294.580 311.534,294.305 312.014,302.128 304.408 C 305.858 300.782,311.568 294.720,311.141 294.839 C 311.064 294.861,307.335 298.596,302.856 303.139 M107.200 312.816 C 108.190 313.735,109.540 314.857,110.200 315.308 C 111.928 316.491,111.001 315.610,108.000 313.217 C 105.888 311.533,105.738 311.458,107.200 312.816 M292.992 312.312 C 292.327 312.910,291.067 314.000,290.192 314.734 C 289.229 315.541,289.074 315.756,289.800 315.278 C 291.113 314.413,294.722 311.236,294.400 311.228 C 294.290 311.226,293.656 311.713,292.992 312.312 M111.744 316.309 C 112.060 316.821,114.400 318.553,114.400 318.275 C 114.400 318.176,113.739 317.591,112.932 316.975 C 112.124 316.359,111.589 316.059,111.744 316.309 M286.800 317.249 C 285.406 318.471,285.405 318.472,286.688 317.619 C 287.396 317.148,288.082 316.591,288.212 316.381 C 288.597 315.757,288.277 315.954,286.800 317.249 M116.212 319.619 C 116.520 320.118,121.223 323.314,121.386 323.136 C 121.455 323.061,120.265 322.153,118.743 321.117 C 117.220 320.082,116.081 319.408,116.212 319.619 M281.026 321.238 C 279.500 322.317,278.385 323.200,278.548 323.200 C 278.961 323.200,283.495 320.093,283.799 319.602 C 284.150 319.034,284.107 319.059,281.026 321.238 M125.200 325.564 C 125.750 326.014,126.380 326.383,126.600 326.385 C 127.028 326.388,126.305 325.834,125.000 325.160 C 124.469 324.885,124.536 325.021,125.200 325.564 M274.200 325.600 C 273.540 326.037,273.180 326.392,273.400 326.388 C 273.801 326.382,275.976 324.823,275.600 324.812 C 275.490 324.808,274.860 325.163,274.200 325.600 M128.000 327.164 C 128.550 327.614,129.180 327.983,129.400 327.985 C 129.828 327.988,129.105 327.434,127.800 326.760 C 127.269 326.485,127.336 326.621,128.000 327.164 M271.400 327.200 C 270.740 327.637,270.380 327.992,270.600 327.988 C 271.001 327.982,273.176 326.423,272.800 326.412 C 272.690 326.408,272.060 326.763,271.400 327.200 M149.600 337.200 C 149.930 337.413,150.470 337.588,150.800 337.588 C 151.333 337.588,151.333 337.545,150.800 337.200 C 150.470 336.987,149.930 336.812,149.600 336.812 C 149.067 336.812,149.067 336.855,149.600 337.200 M249.200 337.200 C 248.667 337.545,248.667 337.588,249.200 337.588 C 249.530 337.588,250.070 337.413,250.400 337.200 C 250.933 336.855,250.933 336.812,250.400 336.812 C 250.070 336.812,249.530 336.987,249.200 337.200 M156.800 339.600 C 157.130 339.813,157.670 339.988,158.000 339.988 C 158.533 339.988,158.533 339.945,158.000 339.600 C 157.670 339.387,157.130 339.212,156.800 339.212 C 156.267 339.212,156.267 339.255,156.800 339.600 M242.000 339.600 C 241.467 339.945,241.467 339.988,242.000 339.988 C 242.330 339.988,242.870 339.813,243.200 339.600 C 243.733 339.255,243.733 339.212,243.200 339.212 C 242.870 339.212,242.330 339.387,242.000 339.600 M159.400 340.400 C 159.840 340.589,160.470 340.744,160.800 340.744 C 161.178 340.744,161.104 340.617,160.600 340.400 C 160.160 340.211,159.530 340.056,159.200 340.056 C 158.822 340.056,158.896 340.183,159.400 340.400 M239.400 340.400 C 238.896 340.617,238.822 340.744,239.200 340.744 C 239.530 340.744,240.160 340.589,240.600 340.400 C 241.104 340.183,241.178 340.056,240.800 340.056 C 240.470 340.056,239.840 340.211,239.400 340.400 M162.600 341.200 C 163.040 341.389,163.670 341.544,164.000 341.544 C 164.378 341.544,164.304 341.417,163.800 341.200 C 163.360 341.011,162.730 340.856,162.400 340.856 C 162.022 340.856,162.096 340.983,162.600 341.200 M236.200 341.200 C 235.696 341.417,235.622 341.544,236.000 341.544 C 236.330 341.544,236.960 341.389,237.400 341.200 C 237.904 340.983,237.978 340.856,237.600 340.856 C 237.270 340.856,236.640 341.011,236.200 341.200 M165.800 342.000 C 166.240 342.189,166.870 342.344,167.200 342.344 C 167.578 342.344,167.504 342.217,167.000 342.000 C 166.560 341.811,165.930 341.656,165.600 341.656 C 165.222 341.656,165.296 341.783,165.800 342.000 M233.000 342.000 C 232.496 342.217,232.422 342.344,232.800 342.344 C 233.130 342.344,233.760 342.189,234.200 342.000 C 234.704 341.783,234.778 341.656,234.400 341.656 C 234.070 341.656,233.440 341.811,233.000 342.000 M169.000 342.800 C 169.440 342.989,170.160 343.138,170.600 343.132 C 171.243 343.123,171.204 343.057,170.400 342.800 C 169.032 342.362,167.981 342.362,169.000 342.800 M229.600 342.800 C 228.796 343.057,228.757 343.123,229.400 343.132 C 229.840 343.138,230.560 342.989,231.000 342.800 C 232.019 342.362,230.968 342.362,229.600 342.800 M172.600 343.600 C 173.260 343.768,174.250 343.905,174.800 343.905 C 175.692 343.905,175.670 343.872,174.600 343.600 C 173.940 343.432,172.950 343.295,172.400 343.295 C 171.508 343.295,171.530 343.328,172.600 343.600 M225.400 343.600 C 224.330 343.872,224.308 343.905,225.200 343.905 C 225.750 343.905,226.740 343.768,227.400 343.600 C 228.470 343.328,228.492 343.295,227.600 343.295 C 227.050 343.295,226.060 343.432,225.400 343.600 M177.400 344.380 C 178.634 344.715,181.464 344.918,181.167 344.650 C 181.075 344.568,179.920 344.400,178.600 344.277 C 177.022 344.130,176.611 344.165,177.400 344.380 M220.200 344.400 L 218.600 344.686 220.000 344.696 C 220.770 344.701,221.940 344.568,222.600 344.400 C 224.228 343.986,222.513 343.986,220.200 344.400 M183.600 345.206 C 185.419 345.544,189.474 345.724,189.167 345.453 C 189.075 345.372,187.380 345.208,185.400 345.089 C 182.863 344.936,182.331 344.970,183.600 345.206 M213.000 345.200 L 210.600 345.466 212.600 345.503 C 213.700 345.524,215.410 345.397,216.400 345.220 C 218.724 344.807,216.665 344.795,213.000 345.200 " stroke="none" fill="#3ca4ec" fill-rule="evenodd"></path><path id="path3" d="M185.705 55.087 C 186.314 55.179,187.214 55.177,187.705 55.082 C 188.197 54.987,187.700 54.911,186.600 54.914 C 185.500 54.917,185.097 54.995,185.705 55.087 M212.505 55.087 C 213.114 55.179,214.014 55.177,214.505 55.082 C 214.997 54.987,214.500 54.911,213.400 54.914 C 212.300 54.917,211.897 54.995,212.505 55.087 M54.893 187.600 C 54.893 188.370,54.975 188.685,55.076 188.300 C 55.176 187.915,55.176 187.285,55.076 186.900 C 54.975 186.515,54.893 186.830,54.893 187.600 M344.893 187.600 C 344.893 188.370,344.975 188.685,345.076 188.300 C 345.176 187.915,345.176 187.285,345.076 186.900 C 344.975 186.515,344.893 186.830,344.893 187.600 M54.893 212.400 C 54.893 213.170,54.975 213.485,55.076 213.100 C 55.176 212.715,55.176 212.085,55.076 211.700 C 54.975 211.315,54.893 211.630,54.893 212.400 M344.893 212.400 C 344.893 213.170,344.975 213.485,345.076 213.100 C 345.176 212.715,345.176 212.085,345.076 211.700 C 344.975 211.315,344.893 211.630,344.893 212.400 M185.705 345.087 C 186.314 345.179,187.214 345.177,187.705 345.082 C 188.197 344.987,187.700 344.911,186.600 344.914 C 185.500 344.917,185.097 344.995,185.705 345.087 M212.505 345.087 C 213.114 345.179,214.014 345.177,214.505 345.082 C 214.997 344.987,214.500 344.911,213.400 344.914 C 212.300 344.917,211.897 344.995,212.505 345.087 " stroke="none" fill="#45aded" fill-rule="evenodd"></path><path id="path4" d="M189.115 54.728 C 188.738 54.878,193.636 55.000,200.000 55.000 C 206.364 55.000,211.262 54.878,210.885 54.728 C 210.508 54.579,205.610 54.456,200.000 54.456 C 194.390 54.456,189.492 54.579,189.115 54.728 M181.000 55.590 C 180.517 55.792,181.151 55.838,182.600 55.707 C 183.920 55.587,185.075 55.424,185.167 55.345 C 185.507 55.049,181.770 55.269,181.000 55.590 M214.833 55.345 C 214.925 55.424,216.080 55.587,217.400 55.707 C 218.849 55.838,219.483 55.792,219.000 55.590 C 218.230 55.269,214.493 55.049,214.833 55.345 M176.900 56.276 C 177.285 56.376,177.915 56.376,178.300 56.276 C 178.685 56.175,178.370 56.093,177.600 56.093 C 176.830 56.093,176.515 56.175,176.900 56.276 M221.700 56.276 C 222.085 56.376,222.715 56.376,223.100 56.276 C 223.485 56.175,223.170 56.093,222.400 56.093 C 221.630 56.093,221.315 56.175,221.700 56.276 M172.100 57.076 C 172.485 57.176,173.115 57.176,173.500 57.076 C 173.885 56.975,173.570 56.893,172.800 56.893 C 172.030 56.893,171.715 56.975,172.100 57.076 M226.500 57.076 C 226.885 57.176,227.515 57.176,227.900 57.076 C 228.285 56.975,227.970 56.893,227.200 56.893 C 226.430 56.893,226.115 56.975,226.500 57.076 M167.400 58.019 C 166.842 58.271,167.085 58.307,168.200 58.138 C 169.080 58.004,169.875 57.828,169.967 57.747 C 170.310 57.444,168.168 57.671,167.400 58.019 M230.033 57.747 C 230.125 57.828,230.920 58.004,231.800 58.138 C 232.915 58.307,233.158 58.271,232.600 58.019 C 231.832 57.671,229.690 57.444,230.033 57.747 M164.200 58.800 C 163.181 59.238,164.232 59.238,165.600 58.800 C 166.404 58.543,166.443 58.477,165.800 58.468 C 165.360 58.462,164.640 58.611,164.200 58.800 M234.400 58.800 C 235.768 59.238,236.819 59.238,235.800 58.800 C 235.360 58.611,234.640 58.462,234.200 58.468 C 233.557 58.477,233.596 58.543,234.400 58.800 M161.000 59.600 C 159.981 60.038,161.032 60.038,162.400 59.600 C 163.204 59.343,163.243 59.277,162.600 59.268 C 162.160 59.262,161.440 59.411,161.000 59.600 M237.600 59.600 C 238.968 60.038,240.019 60.038,239.000 59.600 C 238.560 59.411,237.840 59.262,237.400 59.268 C 236.757 59.277,236.796 59.343,237.600 59.600 M153.728 61.731 C 152.369 62.209,151.124 62.734,150.963 62.898 C 150.802 63.062,151.943 62.764,153.498 62.235 C 155.053 61.706,156.657 61.187,157.063 61.083 C 157.723 60.913,157.716 60.891,157.000 60.878 C 156.560 60.869,155.088 61.253,153.728 61.731 M242.937 61.083 C 243.343 61.187,244.956 61.709,246.522 62.242 C 248.089 62.774,249.197 63.052,248.985 62.858 C 248.460 62.377,243.595 60.789,242.822 60.846 C 242.375 60.880,242.407 60.946,242.937 61.083 M146.129 64.530 C 144.084 65.286,144.090 65.657,146.136 64.960 C 147.161 64.611,148.000 64.252,148.000 64.162 C 148.000 63.919,147.537 64.010,146.129 64.530 M252.000 64.135 C 252.000 64.240,252.810 64.601,253.800 64.938 C 255.609 65.554,256.383 65.473,254.700 64.844 C 253.007 64.210,252.000 63.946,252.000 64.135 M142.200 66.214 C 141.540 66.517,141.270 66.766,141.600 66.768 C 141.930 66.770,142.650 66.514,143.200 66.200 C 144.465 65.477,143.789 65.487,142.200 66.214 M256.800 66.200 C 257.350 66.514,258.070 66.771,258.400 66.770 C 258.730 66.769,258.394 66.506,257.654 66.184 C 255.951 65.445,255.494 65.453,256.800 66.200 M134.800 69.729 C 128.899 72.708,124.000 75.479,124.000 75.836 C 124.000 76.034,126.925 74.429,128.800 73.202 C 129.350 72.842,132.275 71.326,135.300 69.832 C 139.971 67.526,141.270 66.797,140.700 66.801 C 140.645 66.801,137.990 68.119,134.800 69.729 M259.200 66.971 C 259.200 67.052,261.675 68.339,264.700 69.832 C 267.725 71.326,270.650 72.842,271.200 73.202 C 273.075 74.429,276.000 76.034,276.000 75.836 C 276.000 75.499,271.241 72.787,265.744 69.992 C 260.341 67.245,259.200 66.718,259.200 66.971 M119.955 78.193 C 118.110 79.399,116.729 80.389,116.888 80.393 C 117.139 80.399,123.112 76.622,123.562 76.171 C 124.177 75.556,122.855 76.297,119.955 78.193 M276.404 76.120 C 276.808 76.558,282.831 80.400,283.112 80.399 C 283.473 80.397,279.016 77.377,277.400 76.529 C 276.740 76.182,276.292 75.998,276.404 76.120 M112.400 83.649 C 111.006 84.871,111.005 84.872,112.288 84.019 C 112.996 83.548,113.682 82.991,113.812 82.781 C 114.197 82.157,113.877 82.354,112.400 83.649 M286.144 82.709 C 286.460 83.221,288.800 84.953,288.800 84.675 C 288.800 84.576,288.139 83.991,287.332 83.375 C 286.524 82.759,285.989 82.459,286.144 82.709 M108.846 86.221 C 107.881 86.979,107.266 87.600,107.479 87.600 C 107.692 87.600,108.572 86.977,109.433 86.217 C 111.447 84.438,111.110 84.440,108.846 86.221 M290.567 86.164 C 291.428 86.954,292.313 87.600,292.533 87.600 C 292.753 87.600,292.858 87.545,292.767 87.477 C 292.675 87.410,291.790 86.763,290.800 86.041 L 289.000 84.727 290.567 86.164 M103.643 90.600 C 102.484 91.590,101.712 92.400,101.929 92.400 C 102.344 92.400,106.361 88.843,105.976 88.816 C 105.853 88.807,104.803 89.610,103.643 90.600 M295.739 90.553 C 296.805 91.569,297.841 92.400,298.040 92.400 C 298.239 92.400,297.727 91.810,296.901 91.089 C 294.422 88.925,293.662 88.574,295.739 90.553 M91.000 103.125 C 90.340 103.895,89.544 104.902,89.232 105.363 C 88.364 106.642,90.667 104.494,91.683 103.077 C 92.845 101.454,92.405 101.485,91.000 103.125 M307.600 101.960 C 307.600 102.159,308.431 103.195,309.447 104.261 C 311.426 106.338,311.075 105.578,308.911 103.099 C 308.190 102.273,307.600 101.761,307.600 101.960 M86.022 109.144 C 85.265 110.165,84.958 110.746,85.341 110.436 C 86.175 109.759,87.747 107.609,87.544 107.421 C 87.465 107.348,86.780 108.123,86.022 109.144 M312.400 107.467 C 312.400 107.687,313.046 108.572,313.836 109.433 L 315.273 111.000 313.959 109.200 C 313.237 108.210,312.590 107.325,312.523 107.233 C 312.455 107.142,312.400 107.247,312.400 107.467 M83.199 112.900 C 82.610 113.704,82.513 113.984,82.945 113.633 C 83.601 113.100,84.593 111.600,84.289 111.600 C 84.213 111.600,83.722 112.185,83.199 112.900 M315.964 112.333 C 316.180 112.736,316.671 113.321,317.055 113.633 C 317.487 113.984,317.390 113.704,316.801 112.900 C 315.751 111.465,315.357 111.198,315.964 112.333 M79.364 118.129 C 78.909 118.828,78.215 119.895,77.822 120.500 C 77.429 121.105,77.193 121.600,77.297 121.600 C 77.566 121.600,80.486 117.153,80.324 116.991 C 80.251 116.917,79.818 117.429,79.364 118.129 M319.600 116.913 C 319.600 117.295,322.450 121.600,322.703 121.600 C 322.807 121.600,322.572 121.105,322.182 120.500 C 320.444 117.808,319.600 116.636,319.600 116.913 M74.847 125.273 C 72.504 129.025,66.536 140.800,66.977 140.800 C 67.060 140.800,68.413 138.235,69.983 135.100 C 72.993 129.090,73.822 127.542,74.962 125.801 C 75.348 125.212,75.598 124.664,75.517 124.583 C 75.436 124.503,75.135 124.813,74.847 125.273 M324.400 124.525 C 324.400 124.692,324.701 125.288,325.070 125.850 C 326.176 127.539,327.027 129.130,330.017 135.100 C 332.536 140.130,333.681 142.120,332.928 140.156 C 331.671 136.881,324.400 123.554,324.400 124.525 M65.691 143.255 C 65.201 144.359,64.811 145.473,64.825 145.731 C 64.839 145.989,65.023 145.770,65.233 145.244 C 65.444 144.718,65.906 143.676,66.260 142.930 C 66.615 142.183,66.832 141.499,66.743 141.410 C 66.654 141.321,66.181 142.152,65.691 143.255 M333.214 141.633 C 333.206 141.982,333.335 142.402,333.500 142.567 C 333.665 142.731,334.105 143.616,334.478 144.533 C 334.850 145.450,335.155 145.930,335.155 145.600 C 335.154 144.774,333.232 140.845,333.214 141.633 M63.654 148.387 C 63.404 149.054,62.996 150.146,62.746 150.813 C 62.497 151.480,62.373 152.106,62.471 152.204 C 62.569 152.303,63.035 151.268,63.506 149.906 C 64.371 147.404,64.494 146.143,63.654 148.387 M335.806 147.800 C 335.953 148.240,336.355 149.457,336.699 150.504 C 337.043 151.552,337.399 152.334,337.491 152.242 C 337.697 152.037,336.514 148.494,335.951 147.631 C 335.616 147.118,335.589 147.149,335.806 147.800 M60.499 157.590 C 59.796 159.842,59.913 160.558,60.643 158.473 C 60.976 157.523,61.192 156.576,61.123 156.369 C 61.054 156.161,60.773 156.711,60.499 157.590 M338.824 156.400 C 338.817 156.730,339.071 157.720,339.388 158.600 C 339.705 159.480,339.970 159.930,339.976 159.600 C 339.983 159.270,339.729 158.280,339.412 157.400 C 339.095 156.520,338.830 156.070,338.824 156.400 M59.400 161.600 C 59.248 162.291,59.207 162.941,59.309 163.042 C 59.411 163.144,59.609 162.653,59.750 161.950 C 60.083 160.283,59.760 159.960,59.400 161.600 M340.068 160.800 C 340.088 161.839,340.718 163.546,340.732 162.600 C 340.738 162.160,340.589 161.440,340.400 161.000 C 340.189 160.510,340.061 160.432,340.068 160.800 M58.600 164.800 C 58.448 165.491,58.407 166.141,58.509 166.242 C 58.611 166.344,58.809 165.853,58.950 165.150 C 59.283 163.483,58.960 163.160,58.600 164.800 M340.868 164.000 C 340.888 165.039,341.518 166.746,341.532 165.800 C 341.538 165.360,341.389 164.640,341.200 164.200 C 340.989 163.710,340.861 163.632,340.868 164.000 M57.856 167.684 C 57.721 168.188,57.627 168.960,57.646 169.400 C 57.665 169.840,57.845 169.498,58.046 168.640 C 58.436 166.978,58.270 166.140,57.856 167.684 M341.862 168.200 C 341.996 169.080,342.172 169.875,342.253 169.967 C 342.556 170.310,342.329 168.168,341.981 167.400 C 341.729 166.842,341.693 167.085,341.862 168.200 M57.049 171.015 C 56.912 171.373,56.823 172.236,56.850 172.933 C 56.892 173.987,56.950 173.898,57.199 172.400 C 57.517 170.486,57.459 169.948,57.049 171.015 M342.682 172.021 C 342.808 172.999,342.975 173.875,343.055 173.967 C 343.381 174.342,343.160 171.355,342.821 170.821 C 342.584 170.446,342.535 170.870,342.682 172.021 M56.256 175.684 C 56.121 176.188,56.030 177.140,56.053 177.800 C 56.081 178.628,56.197 178.384,56.426 177.013 C 56.776 174.923,56.674 174.126,56.256 175.684 M343.482 176.600 C 343.609 177.700,343.777 178.675,343.856 178.767 C 344.155 179.114,343.928 176.164,343.597 175.400 C 343.374 174.885,343.333 175.313,343.482 176.600 M55.449 181.415 C 55.312 181.773,55.225 182.816,55.256 183.733 C 55.309 185.301,55.329 185.270,55.592 183.200 C 55.890 180.855,55.851 180.368,55.449 181.415 M344.276 182.646 C 344.540 185.355,344.732 185.733,344.762 183.600 C 344.776 182.610,344.630 181.551,344.437 181.246 C 344.221 180.905,344.159 181.442,344.276 182.646 M54.643 189.433 C 54.295 190.339,54.354 210.108,54.706 210.662 C 54.868 210.916,55.000 206.101,55.000 199.962 C 55.000 193.823,54.974 188.800,54.943 188.800 C 54.911 188.800,54.776 189.085,54.643 189.433 M345.000 200.000 C 345.000 206.118,345.132 210.916,345.294 210.662 C 345.456 210.408,345.588 205.610,345.588 200.000 C 345.588 194.390,345.456 189.592,345.294 189.338 C 345.132 189.084,345.000 193.882,345.000 200.000 M55.238 216.400 C 55.224 217.390,55.370 218.449,55.563 218.754 C 55.779 219.095,55.841 218.558,55.724 217.354 C 55.460 214.645,55.268 214.267,55.238 216.400 M344.470 216.267 C 344.431 217.184,344.296 218.264,344.170 218.667 C 343.953 219.356,343.967 219.357,344.393 218.695 C 344.642 218.307,344.777 217.227,344.693 216.295 L 344.540 214.600 344.470 216.267 M56.028 222.433 C 56.044 223.185,56.212 224.160,56.403 224.600 C 56.626 225.115,56.667 224.687,56.518 223.400 C 56.244 221.022,55.989 220.519,56.028 222.433 M343.659 222.200 C 343.620 222.860,343.496 223.850,343.383 224.400 L 343.177 225.400 343.608 224.414 C 343.844 223.872,343.968 222.882,343.883 222.214 L 343.728 221.000 343.659 222.200 M56.806 227.233 C 56.809 227.985,56.977 228.861,57.179 229.179 C 57.416 229.554,57.465 229.130,57.318 227.979 C 57.035 225.770,56.798 225.425,56.806 227.233 M342.864 227.067 C 342.829 227.764,342.696 228.664,342.570 229.067 C 342.353 229.759,342.365 229.760,342.794 229.091 C 343.045 228.702,343.177 227.802,343.089 227.091 L 342.928 225.800 342.864 227.067 M57.628 230.833 C 57.644 231.365,57.819 232.160,58.019 232.600 C 58.271 233.158,58.307 232.915,58.138 231.800 C 57.855 229.943,57.587 229.436,57.628 230.833 M342.049 230.600 C 342.016 231.040,341.896 231.850,341.783 232.400 L 341.577 233.400 342.006 232.419 C 342.242 231.879,342.361 231.069,342.272 230.619 C 342.113 229.821,342.107 229.821,342.049 230.600 M58.468 234.200 C 58.462 234.640,58.611 235.360,58.800 235.800 C 59.238 236.819,59.238 235.768,58.800 234.400 C 58.543 233.596,58.477 233.557,58.468 234.200 M341.050 234.850 C 340.909 235.553,340.869 236.202,340.959 236.292 C 341.050 236.383,341.248 235.891,341.400 235.200 C 341.552 234.509,341.593 233.859,341.491 233.758 C 341.389 233.656,341.191 234.147,341.050 234.850 M59.268 237.400 C 59.262 237.840,59.411 238.560,59.600 239.000 C 60.038 240.019,60.038 238.968,59.600 237.600 C 59.343 236.796,59.277 236.757,59.268 237.400 M340.250 238.050 C 340.109 238.753,340.069 239.402,340.159 239.492 C 340.250 239.583,340.448 239.091,340.600 238.400 C 340.752 237.709,340.793 237.059,340.691 236.958 C 340.589 236.856,340.391 237.347,340.250 238.050 M60.024 240.400 C 60.017 240.730,60.271 241.720,60.588 242.600 C 60.905 243.480,61.170 243.930,61.176 243.600 C 61.183 243.270,60.929 242.280,60.612 241.400 C 60.295 240.520,60.030 240.070,60.024 240.400 M339.299 241.590 C 338.596 243.842,338.713 244.558,339.443 242.473 C 339.776 241.523,339.992 240.576,339.923 240.369 C 339.854 240.161,339.573 240.711,339.299 241.590 M62.400 247.839 C 62.400 248.403,63.928 252.466,64.248 252.751 C 64.402 252.888,64.394 252.640,64.231 252.200 C 64.069 251.760,63.660 250.590,63.324 249.600 C 62.695 247.749,62.400 247.187,62.400 247.839 M336.699 249.496 C 336.355 250.543,335.953 251.760,335.806 252.200 C 335.589 252.851,335.616 252.882,335.951 252.369 C 336.514 251.506,337.697 247.963,337.491 247.758 C 337.399 247.666,337.043 248.448,336.699 249.496 M64.845 254.400 C 64.846 255.226,66.768 259.155,66.786 258.367 C 66.794 258.018,66.665 257.598,66.500 257.433 C 66.335 257.269,65.895 256.384,65.522 255.467 C 65.150 254.550,64.845 254.070,64.845 254.400 M334.832 254.319 C 334.814 254.605,334.440 255.584,334.000 256.494 C 333.560 257.405,333.206 258.341,333.214 258.575 C 333.222 258.809,333.680 258.034,334.232 256.853 C 334.784 255.672,335.152 254.502,335.049 254.253 C 334.928 253.958,334.852 253.981,334.832 254.319 M67.072 259.844 C 67.860 261.897,73.859 273.287,75.048 274.989 C 75.837 276.117,75.733 275.374,74.930 274.150 C 73.824 272.461,72.973 270.870,69.983 264.900 C 67.464 259.870,66.319 257.880,67.072 259.844 M330.017 264.900 C 327.027 270.870,326.176 272.461,325.070 274.150 C 324.267 275.374,324.163 276.117,324.952 274.989 C 326.743 272.427,333.504 259.200,333.023 259.200 C 332.940 259.200,331.587 261.765,330.017 264.900 M77.818 279.500 C 79.556 282.192,80.400 283.364,80.400 283.087 C 80.400 282.705,77.550 278.400,77.297 278.400 C 77.193 278.400,77.428 278.895,77.818 279.500 M321.057 280.594 C 320.255 281.800,319.600 282.922,319.600 283.087 C 319.600 283.364,320.444 282.192,322.182 279.500 C 322.572 278.895,322.807 278.400,322.703 278.400 C 322.598 278.400,321.858 279.387,321.057 280.594 M83.199 287.100 C 83.722 287.815,84.213 288.400,84.289 288.400 C 84.593 288.400,83.601 286.900,82.945 286.367 C 82.513 286.016,82.610 286.296,83.199 287.100 M316.723 286.700 C 316.018 287.521,315.490 288.400,315.701 288.400 C 315.783 288.400,316.249 287.860,316.737 287.200 C 317.701 285.896,317.692 285.572,316.723 286.700 M86.041 290.800 C 86.763 291.790,87.410 292.675,87.477 292.767 C 87.545 292.858,87.600 292.753,87.600 292.533 C 87.600 292.313,86.954 291.428,86.164 290.567 L 84.727 289.000 86.041 290.800 M313.629 290.691 C 312.953 291.511,312.400 292.351,312.400 292.558 C 312.400 292.764,312.455 292.858,312.523 292.767 C 312.590 292.675,313.236 291.835,313.956 290.900 C 315.571 288.805,315.317 288.643,313.629 290.691 M89.243 294.600 C 90.180 295.998,92.400 298.417,92.400 298.040 C 92.400 297.841,91.569 296.805,90.553 295.739 C 89.537 294.672,88.948 294.160,89.243 294.600 M309.234 295.856 C 308.335 296.877,307.600 297.868,307.600 298.057 C 307.600 298.371,309.436 296.420,310.759 294.700 C 311.860 293.269,310.812 294.064,309.234 295.856 M103.099 308.911 C 105.578 311.075,106.338 311.426,104.261 309.447 C 103.195 308.431,102.159 307.600,101.960 307.600 C 101.761 307.600,102.273 308.190,103.099 308.911 M295.739 309.447 C 293.662 311.426,294.422 311.075,296.901 308.911 C 297.727 308.190,298.239 307.600,298.040 307.600 C 297.841 307.600,296.805 308.431,295.739 309.447 M107.233 312.523 C 107.325 312.590,108.210 313.237,109.200 313.959 L 111.000 315.273 109.433 313.836 C 108.572 313.046,107.687 312.400,107.467 312.400 C 107.247 312.400,107.142 312.455,107.233 312.523 M290.567 313.836 L 289.000 315.273 290.800 313.959 C 291.790 313.237,292.675 312.590,292.767 312.523 C 292.858 312.455,292.753 312.400,292.533 312.400 C 292.313 312.400,291.428 313.046,290.567 313.836 M111.200 315.325 C 111.200 315.424,111.861 316.009,112.668 316.625 C 113.476 317.241,114.011 317.541,113.856 317.291 C 113.540 316.779,111.200 315.047,111.200 315.325 M287.185 316.429 L 285.800 317.658 287.300 316.581 C 288.626 315.630,289.057 315.200,288.685 315.200 C 288.622 315.200,287.947 315.753,287.185 316.429 M119.000 321.222 C 121.288 322.766,124.030 324.351,123.596 323.880 C 123.192 323.442,117.169 319.600,116.888 319.601 C 116.729 319.602,117.680 320.331,119.000 321.222 M279.606 321.658 C 276.241 323.901,275.640 324.396,277.400 323.471 C 279.171 322.541,283.464 319.598,283.000 319.632 C 282.780 319.648,281.253 320.560,279.606 321.658 M124.000 324.164 C 124.000 324.616,137.311 331.836,140.156 332.928 C 142.118 333.681,140.147 332.561,135.300 330.168 C 132.275 328.674,129.350 327.158,128.800 326.798 C 126.925 325.571,124.000 323.966,124.000 324.164 M273.000 325.715 C 271.460 326.649,267.725 328.644,264.700 330.148 C 259.838 332.566,257.906 333.672,259.844 332.928 C 262.618 331.863,276.000 324.618,276.000 324.181 C 276.000 323.899,275.967 323.916,273.000 325.715 M142.346 333.816 C 143.086 334.137,143.806 334.394,143.946 334.386 C 144.466 334.357,142.176 333.228,141.600 333.230 C 141.270 333.231,141.606 333.494,142.346 333.816 M256.800 333.800 C 255.494 334.547,255.951 334.555,257.654 333.816 C 258.394 333.494,258.730 333.231,258.400 333.230 C 258.070 333.229,257.350 333.486,256.800 333.800 M144.615 334.741 C 145.104 335.185,147.678 336.055,147.887 335.847 C 147.973 335.761,147.186 335.398,146.137 335.040 C 145.089 334.683,144.404 334.548,144.615 334.741 M253.675 335.073 C 252.726 335.409,252.022 335.755,252.110 335.843 C 252.320 336.053,254.891 335.190,255.380 334.745 C 255.855 334.314,255.784 334.327,253.675 335.073 M151.053 337.183 C 151.550 337.639,156.732 339.292,157.165 339.133 C 157.364 339.060,155.992 338.520,154.116 337.933 C 152.240 337.346,150.862 337.008,151.053 337.183 M245.600 338.022 C 243.730 338.651,242.480 339.173,242.822 339.183 C 243.629 339.205,248.485 337.600,248.980 337.148 C 249.458 336.711,249.629 336.666,245.600 338.022 M161.000 340.400 C 161.440 340.589,162.160 340.738,162.600 340.732 C 163.243 340.723,163.204 340.657,162.400 340.400 C 161.032 339.962,159.981 339.962,161.000 340.400 M237.600 340.400 C 236.796 340.657,236.757 340.723,237.400 340.732 C 237.840 340.738,238.560 340.589,239.000 340.400 C 240.019 339.962,238.968 339.962,237.600 340.400 M164.200 341.200 C 164.640 341.389,165.360 341.538,165.800 341.532 C 166.443 341.523,166.404 341.457,165.600 341.200 C 164.232 340.762,163.181 340.762,164.200 341.200 M234.400 341.200 C 233.596 341.457,233.557 341.523,234.200 341.532 C 234.640 341.538,235.360 341.389,235.800 341.200 C 236.819 340.762,235.768 340.762,234.400 341.200 M167.400 341.981 C 168.168 342.329,170.310 342.556,169.967 342.253 C 169.875 342.172,169.080 341.996,168.200 341.862 C 167.085 341.693,166.842 341.729,167.400 341.981 M231.000 342.000 C 229.911 342.277,229.893 342.307,230.800 342.325 C 231.350 342.335,232.160 342.189,232.600 342.000 C 233.586 341.576,232.666 341.576,231.000 342.000 M172.100 343.076 C 172.485 343.176,173.115 343.176,173.500 343.076 C 173.885 342.975,173.570 342.893,172.800 342.893 C 172.030 342.893,171.715 342.975,172.100 343.076 M226.500 343.076 C 226.885 343.176,227.515 343.176,227.900 343.076 C 228.285 342.975,227.970 342.893,227.200 342.893 C 226.430 342.893,226.115 342.975,226.500 343.076 M175.400 343.597 C 176.164 343.928,179.114 344.155,178.767 343.856 C 178.675 343.777,177.700 343.609,176.600 343.482 C 175.313 343.333,174.885 343.374,175.400 343.597 M222.600 343.600 L 221.000 343.886 222.400 343.915 C 223.170 343.931,224.160 343.789,224.600 343.600 C 225.543 343.195,224.862 343.195,222.600 343.600 M181.000 344.410 C 181.770 344.731,185.507 344.951,185.167 344.655 C 185.075 344.576,183.920 344.413,182.600 344.293 C 181.151 344.162,180.517 344.208,181.000 344.410 M216.600 344.400 L 214.600 344.674 216.400 344.709 C 217.390 344.728,218.560 344.589,219.000 344.400 C 219.913 344.008,219.462 344.008,216.600 344.400 M189.115 345.272 C 189.492 345.421,194.390 345.544,200.000 345.544 C 205.610 345.544,210.508 345.421,210.885 345.272 C 211.262 345.122,206.364 345.000,200.000 345.000 C 193.636 345.000,188.738 345.122,189.115 345.272 " stroke="none" fill="#5cbcf4" fill-rule="evenodd"></path></g></svg>