<svg id="svg" version="1.1" xmlns="http://www.w3.org/2000/svg" xmlns:xlink="http://www.w3.org/1999/xlink" width="400" height="400" viewBox="0, 0, 400,400"><g id="svgg"><path id="path0" d="M39.600 200.000 L 39.600 360.400 200.000 360.400 L 360.400 360.400 360.400 200.000 L 360.400 39.600 200.000 39.600 L 39.600 39.600 39.600 200.000 M343.200 200.000 L 343.200 343.200 200.000 343.200 L 56.800 343.200 56.800 200.000 L 56.800 56.800 200.000 56.800 L 343.200 56.800 343.200 200.000 " stroke="none" fill="#3c9c74" fill-rule="evenodd"></path><path id="path1" d="M57.300 57.065 C 56.446 57.409,56.579 342.630,57.433 342.957 C 58.260 343.275,341.740 343.275,342.567 342.957 C 343.539 342.584,343.539 57.416,342.567 57.043 C 341.810 56.752,58.020 56.774,57.300 57.065 " stroke="none" fill="#2ccc44" fill-rule="evenodd"></path><path id="path2" d="" stroke="none" fill="#34a478" fill-rule="evenodd"></path><path id="path3" d="" stroke="none" fill="#34c060" fill-rule="evenodd"></path><path id="path4" d="" stroke="none" fill="#34d044" fill-rule="evenodd"></path></g></svg>