<svg id="svg" version="1.1" xmlns="http://www.w3.org/2000/svg" xmlns:xlink="http://www.w3.org/1999/xlink" width="400" height="400" viewBox="0, 0, 400,400"><g id="svgg"><path id="path0" d="M199.799 86.802 C 199.402 87.684,198.820 88.618,198.506 88.878 C 198.192 89.139,197.403 90.353,196.753 91.576 C 196.104 92.799,195.173 94.444,194.686 95.232 C 190.950 101.268,188.139 106.052,186.949 108.400 C 186.336 109.610,185.275 111.410,184.591 112.400 C 183.907 113.390,183.070 114.740,182.730 115.400 C 180.964 118.831,179.484 121.465,179.021 122.000 C 178.735 122.330,177.655 124.220,176.620 126.200 C 175.585 128.180,174.501 130.070,174.210 130.400 C 173.755 130.917,172.145 133.785,170.116 137.692 C 169.805 138.293,169.398 138.878,169.213 138.992 C 169.028 139.106,168.208 140.505,167.390 142.100 C 166.572 143.695,165.669 145.270,165.383 145.600 C 165.096 145.930,164.154 147.561,163.289 149.225 C 161.662 152.355,160.409 154.453,159.959 154.800 C 159.817 154.910,158.845 156.707,157.799 158.794 C 156.754 160.880,155.471 163.147,154.949 163.831 C 154.427 164.516,153.992 165.239,153.983 165.438 C 153.974 165.637,153.165 167.060,152.185 168.600 C 151.205 170.140,149.664 172.840,148.759 174.600 C 147.855 176.360,146.791 178.160,146.395 178.600 C 146.000 179.040,144.834 181.020,143.805 183.000 C 142.776 184.980,141.704 186.870,141.423 187.200 C 141.141 187.530,140.223 189.150,139.382 190.800 C 138.541 192.450,137.280 194.610,136.579 195.600 C 135.878 196.590,134.921 198.279,134.452 199.353 C 133.982 200.427,132.914 202.317,132.078 203.553 C 131.241 204.789,129.873 207.150,129.037 208.800 C 128.202 210.450,127.310 211.980,127.056 212.200 C 126.802 212.420,125.896 213.950,125.043 215.600 C 124.190 217.250,123.000 219.320,122.398 220.200 C 121.796 221.080,120.469 223.465,119.448 225.500 C 118.427 227.535,117.459 229.203,117.296 229.206 C 117.133 229.210,116.550 230.155,116.000 231.306 C 115.450 232.458,114.438 234.220,113.752 235.223 C 113.065 236.225,111.732 238.565,110.790 240.423 C 109.847 242.280,108.762 244.160,108.378 244.600 C 107.995 245.040,106.831 247.020,105.792 249.000 C 104.753 250.980,103.675 252.870,103.396 253.200 C 103.117 253.530,102.256 255.060,101.483 256.600 C 100.709 258.140,99.618 260.071,99.057 260.890 C 98.496 261.710,97.193 263.960,96.161 265.890 C 95.129 267.821,94.062 269.670,93.789 270.000 C 93.517 270.330,92.688 271.735,91.947 273.122 C 90.107 276.567,89.838 277.031,89.315 277.661 C 89.066 277.962,88.114 279.646,87.200 281.404 C 86.286 283.162,85.301 284.870,85.011 285.200 C 84.721 285.530,83.633 287.420,82.593 289.400 C 81.553 291.380,80.474 293.270,80.194 293.600 C 79.914 293.930,78.927 295.640,78.001 297.400 C 77.074 299.160,75.885 301.173,75.358 301.873 C 74.831 302.574,74.400 303.222,74.400 303.314 C 74.400 303.847,69.884 311.600,69.574 311.600 C 69.368 311.600,69.196 311.825,69.192 312.100 C 69.187 312.375,68.303 314.130,67.227 316.000 C 66.150 317.870,64.424 320.930,63.390 322.800 C 62.356 324.670,61.284 326.470,61.007 326.800 C 60.159 327.811,58.400 331.193,58.400 331.814 C 58.400 332.468,131.127 332.585,180.800 332.011 C 194.330 331.854,212.521 331.702,221.225 331.671 C 229.929 331.641,237.165 331.502,237.305 331.362 C 237.444 331.222,242.743 331.140,249.079 331.179 C 268.407 331.297,342.175 330.326,342.584 329.948 C 342.822 329.727,342.630 329.356,342.078 328.970 C 341.589 328.627,340.811 327.594,340.348 326.674 C 339.885 325.753,339.259 324.717,338.956 324.371 C 338.652 324.025,337.657 322.315,336.743 320.571 C 335.829 318.827,334.557 316.633,333.918 315.696 C 333.279 314.758,332.485 313.408,332.154 312.696 C 331.378 311.026,330.691 309.833,330.084 309.101 C 329.558 308.468,327.942 305.560,326.691 303.000 C 326.262 302.120,325.512 300.860,325.025 300.200 C 324.538 299.540,323.372 297.576,322.433 295.835 C 321.495 294.094,320.281 291.961,319.735 291.096 C 319.188 290.231,318.011 288.146,317.118 286.462 C 316.225 284.778,315.245 283.113,314.941 282.762 C 314.637 282.411,313.673 280.718,312.800 279.000 C 311.927 277.282,310.955 275.589,310.640 275.238 C 310.325 274.887,309.304 273.160,308.370 271.400 C 307.436 269.640,306.457 267.930,306.194 267.600 C 305.931 267.270,304.871 265.421,303.839 263.490 C 302.807 261.560,301.504 259.310,300.943 258.490 C 300.382 257.671,299.306 255.830,298.550 254.400 C 297.795 252.970,296.676 250.990,296.062 250.000 C 295.449 249.010,294.332 247.030,293.580 245.600 C 292.827 244.170,292.005 242.820,291.753 242.600 C 291.500 242.380,290.433 240.490,289.382 238.400 C 288.331 236.310,287.158 234.240,286.775 233.800 C 286.127 233.054,285.246 231.487,283.852 228.600 C 283.533 227.940,282.921 226.950,282.491 226.400 C 282.061 225.850,281.019 224.050,280.177 222.400 C 279.334 220.750,278.343 219.040,277.974 218.600 C 277.604 218.160,276.410 216.180,275.320 214.200 C 270.177 204.862,268.621 202.140,268.001 201.400 C 267.632 200.960,266.741 199.430,266.020 198.000 C 265.299 196.570,264.123 194.500,263.405 193.400 C 262.687 192.300,261.347 189.919,260.428 188.110 C 259.508 186.300,258.580 184.711,258.366 184.579 C 258.152 184.447,257.171 182.733,256.185 180.769 C 255.199 178.806,254.240 177.200,254.054 177.200 C 253.868 177.200,253.057 175.885,252.252 174.277 C 251.447 172.670,250.148 170.375,249.366 169.177 C 248.584 167.980,247.397 165.920,246.727 164.600 C 246.058 163.280,245.282 161.930,245.003 161.600 C 244.724 161.270,243.539 159.200,242.370 157.000 C 241.201 154.800,239.604 151.982,238.822 150.738 C 238.040 149.494,236.860 147.524,236.200 146.361 C 234.016 142.512,231.631 138.215,231.114 137.200 C 230.835 136.650,230.311 135.874,229.950 135.475 C 229.590 135.077,228.700 133.547,227.973 132.075 C 227.246 130.604,226.266 128.860,225.795 128.200 C 225.323 127.540,224.654 126.460,224.307 125.800 C 222.004 121.416,221.540 120.595,221.046 120.031 C 220.743 119.684,219.739 117.960,218.815 116.200 C 217.891 114.440,216.895 112.730,216.600 112.400 C 216.306 112.070,215.443 110.630,214.682 109.200 C 211.524 103.266,211.159 102.621,210.837 102.415 C 210.652 102.297,209.776 100.760,208.889 99.000 C 208.002 97.240,206.847 95.170,206.321 94.400 C 205.795 93.630,204.396 91.245,203.212 89.100 C 200.753 84.644,200.768 84.654,199.799 86.802 " stroke="none" fill="#fb4334" fill-rule="evenodd"></path><path id="path1" d="M200.100 53.798 C 199.825 54.111,199.600 54.604,199.600 54.895 C 199.600 55.186,199.240 55.683,198.800 56.000 C 198.360 56.317,198.000 56.897,198.000 57.288 C 198.000 57.680,197.820 58.000,197.600 58.000 C 197.380 58.000,197.200 58.278,197.200 58.617 C 197.200 58.956,196.840 59.620,196.400 60.092 C 195.960 60.564,195.600 61.187,195.600 61.475 C 195.600 61.764,195.420 62.000,195.200 62.000 C 194.980 62.000,194.800 62.278,194.800 62.617 C 194.800 62.956,194.440 63.620,194.000 64.092 C 193.560 64.564,193.200 65.187,193.200 65.475 C 193.200 65.764,193.020 66.000,192.800 66.000 C 192.580 66.000,192.400 66.278,192.400 66.617 C 192.400 66.956,192.040 67.620,191.600 68.092 C 191.160 68.564,190.800 69.187,190.800 69.475 C 190.800 69.764,190.620 70.000,190.400 70.000 C 190.180 70.000,190.000 70.360,190.000 70.800 C 190.000 71.240,189.820 71.600,189.600 71.600 C 189.380 71.600,189.200 71.920,189.200 72.312 C 189.200 72.703,188.840 73.283,188.400 73.600 C 187.960 73.917,187.600 74.497,187.600 74.888 C 187.600 75.280,187.420 75.600,187.200 75.600 C 186.980 75.600,186.800 75.920,186.800 76.312 C 186.800 76.703,186.440 77.283,186.000 77.600 C 185.560 77.917,185.200 78.497,185.200 78.888 C 185.200 79.280,185.020 79.600,184.800 79.600 C 184.580 79.600,184.400 79.960,184.400 80.400 C 184.400 80.840,184.220 81.200,184.000 81.200 C 183.780 81.200,183.600 81.520,183.600 81.912 C 183.600 82.303,183.240 82.883,182.800 83.200 C 182.360 83.517,182.000 84.097,182.000 84.488 C 182.000 84.880,181.820 85.200,181.600 85.200 C 181.380 85.200,181.200 85.560,181.200 86.000 C 181.200 86.440,181.020 86.800,180.800 86.800 C 180.580 86.800,180.400 87.120,180.400 87.512 C 180.400 87.903,180.040 88.483,179.600 88.800 C 179.160 89.117,178.800 89.697,178.800 90.088 C 178.800 90.480,178.620 90.800,178.400 90.800 C 178.180 90.800,178.000 91.120,178.000 91.512 C 178.000 91.903,177.640 92.483,177.200 92.800 C 176.760 93.117,176.400 93.697,176.400 94.088 C 176.400 94.480,176.220 94.800,176.000 94.800 C 175.780 94.800,175.600 95.160,175.600 95.600 C 175.600 96.040,175.420 96.400,175.200 96.400 C 174.980 96.400,174.800 96.720,174.800 97.112 C 174.800 97.503,174.440 98.083,174.000 98.400 C 173.560 98.717,173.200 99.297,173.200 99.688 C 173.200 100.080,173.020 100.400,172.800 100.400 C 172.580 100.400,172.400 100.760,172.400 101.200 C 172.400 101.640,172.220 102.000,172.000 102.000 C 171.780 102.000,171.600 102.320,171.600 102.712 C 171.600 103.103,171.240 103.683,170.800 104.000 C 170.360 104.317,170.000 104.897,170.000 105.288 C 170.000 105.680,169.820 106.000,169.600 106.000 C 169.380 106.000,169.200 106.360,169.200 106.800 C 169.200 107.240,169.020 107.600,168.800 107.600 C 168.580 107.600,168.400 107.920,168.400 108.312 C 168.400 108.703,168.040 109.283,167.600 109.600 C 167.160 109.917,166.800 110.497,166.800 110.888 C 166.800 111.280,166.620 111.600,166.400 111.600 C 166.180 111.600,166.000 111.960,166.000 112.400 C 166.000 112.840,165.820 113.200,165.600 113.200 C 165.380 113.200,165.200 113.520,165.200 113.912 C 165.200 114.303,164.840 114.883,164.400 115.200 C 163.960 115.517,163.600 116.097,163.600 116.488 C 163.600 116.880,163.420 117.200,163.200 117.200 C 162.980 117.200,162.800 117.520,162.800 117.912 C 162.800 118.303,162.440 118.883,162.000 119.200 C 161.560 119.517,161.200 120.097,161.200 120.488 C 161.200 120.880,161.020 121.200,160.800 121.200 C 160.580 121.200,160.400 121.560,160.400 122.000 C 160.400 122.440,160.220 122.800,160.000 122.800 C 159.780 122.800,159.600 123.120,159.600 123.512 C 159.600 123.903,159.240 124.483,158.800 124.800 C 158.360 125.117,158.000 125.697,158.000 126.088 C 158.000 126.480,157.820 126.800,157.600 126.800 C 157.380 126.800,157.200 127.120,157.200 127.512 C 157.200 127.903,156.840 128.483,156.400 128.800 C 155.960 129.117,155.600 129.697,155.600 130.088 C 155.600 130.480,155.420 130.800,155.200 130.800 C 154.980 130.800,154.800 131.160,154.800 131.600 C 154.800 132.040,154.620 132.400,154.400 132.400 C 154.180 132.400,154.000 132.760,154.000 133.200 C 154.000 133.640,153.820 134.000,153.600 134.000 C 153.380 134.000,153.200 134.320,153.200 134.712 C 153.200 135.103,152.840 135.683,152.400 136.000 C 151.960 136.317,151.600 136.897,151.600 137.288 C 151.600 137.680,151.420 138.000,151.200 138.000 C 150.980 138.000,150.800 138.360,150.800 138.800 C 150.800 139.240,150.620 139.600,150.400 139.600 C 150.180 139.600,150.000 139.920,150.000 140.312 C 150.000 140.703,149.640 141.283,149.200 141.600 C 148.760 141.917,148.400 142.497,148.400 142.888 C 148.400 143.280,148.220 143.600,148.000 143.600 C 147.780 143.600,147.600 143.920,147.600 144.312 C 147.600 144.703,147.240 145.283,146.800 145.600 C 146.360 145.917,146.000 146.497,146.000 146.888 C 146.000 147.280,145.820 147.600,145.600 147.600 C 145.380 147.600,145.200 147.960,145.200 148.400 C 145.200 148.840,145.020 149.200,144.800 149.200 C 144.580 149.200,144.400 149.520,144.400 149.912 C 144.400 150.303,144.040 150.883,143.600 151.200 C 143.160 151.517,142.800 152.097,142.800 152.488 C 142.800 152.880,142.620 153.200,142.400 153.200 C 142.180 153.200,142.000 153.560,142.000 154.000 C 142.000 154.440,141.820 154.800,141.600 154.800 C 141.380 154.800,141.200 155.120,141.200 155.512 C 141.200 155.903,140.840 156.483,140.400 156.800 C 139.960 157.117,139.600 157.697,139.600 158.088 C 139.600 158.480,139.420 158.800,139.200 158.800 C 138.980 158.800,138.800 159.160,138.800 159.600 C 138.800 160.040,138.620 160.400,138.400 160.400 C 138.180 160.400,138.000 160.720,138.000 161.112 C 138.000 161.503,137.640 162.083,137.200 162.400 C 136.760 162.717,136.400 163.297,136.400 163.688 C 136.400 164.080,136.220 164.400,136.000 164.400 C 135.780 164.400,135.600 164.760,135.600 165.200 C 135.600 165.640,135.420 166.000,135.200 166.000 C 134.980 166.000,134.800 166.320,134.800 166.712 C 134.800 167.103,134.440 167.683,134.000 168.000 C 133.560 168.317,133.200 168.897,133.200 169.288 C 133.200 169.680,133.020 170.000,132.800 170.000 C 132.580 170.000,132.400 170.320,132.400 170.712 C 132.400 171.103,132.040 171.683,131.600 172.000 C 131.160 172.317,130.800 172.897,130.800 173.288 C 130.800 173.680,130.620 174.000,130.400 174.000 C 130.180 174.000,130.000 174.360,130.000 174.800 C 130.000 175.240,129.820 175.600,129.600 175.600 C 129.380 175.600,129.200 175.920,129.200 176.312 C 129.200 176.703,128.840 177.283,128.400 177.600 C 127.960 177.917,127.600 178.497,127.600 178.888 C 127.600 179.280,127.420 179.600,127.200 179.600 C 126.980 179.600,126.800 179.960,126.800 180.400 C 126.800 180.840,126.620 181.200,126.400 181.200 C 126.180 181.200,126.000 181.520,126.000 181.912 C 126.000 182.303,125.640 182.883,125.200 183.200 C 124.760 183.517,124.400 184.097,124.400 184.488 C 124.400 184.880,124.220 185.200,124.000 185.200 C 123.780 185.200,123.600 185.560,123.600 186.000 C 123.600 186.440,123.420 186.800,123.200 186.800 C 122.980 186.800,122.800 187.120,122.800 187.512 C 122.800 187.903,122.440 188.483,122.000 188.800 C 121.560 189.117,121.200 189.697,121.200 190.088 C 121.200 190.480,121.020 190.800,120.800 190.800 C 120.580 190.800,120.400 191.160,120.400 191.600 C 120.400 192.040,120.220 192.400,120.000 192.400 C 119.780 192.400,119.600 192.720,119.600 193.112 C 119.600 193.503,119.240 194.083,118.800 194.400 C 118.360 194.717,118.000 195.297,118.000 195.688 C 118.000 196.080,117.820 196.400,117.600 196.400 C 117.380 196.400,117.200 196.720,117.200 197.112 C 117.200 197.503,116.840 198.083,116.400 198.400 C 115.960 198.717,115.600 199.297,115.600 199.688 C 115.600 200.080,115.420 200.400,115.200 200.400 C 114.980 200.400,114.800 200.760,114.800 201.200 C 114.800 201.640,114.620 202.000,114.400 202.000 C 114.180 202.000,114.000 202.320,114.000 202.712 C 114.000 203.103,113.640 203.683,113.200 204.000 C 112.760 204.317,112.400 204.897,112.400 205.288 C 112.400 205.680,112.220 206.000,112.000 206.000 C 111.780 206.000,111.600 206.360,111.600 206.800 C 111.600 207.240,111.420 207.600,111.200 207.600 C 110.980 207.600,110.800 207.920,110.800 208.312 C 110.800 208.703,110.440 209.283,110.000 209.600 C 109.560 209.917,109.200 210.497,109.200 210.888 C 109.200 211.280,109.020 211.600,108.800 211.600 C 108.580 211.600,108.400 211.960,108.400 212.400 C 108.400 212.840,108.220 213.200,108.000 213.200 C 107.780 213.200,107.600 213.520,107.600 213.912 C 107.600 214.303,107.240 214.883,106.800 215.200 C 106.360 215.517,106.000 216.097,106.000 216.488 C 106.000 216.880,105.820 217.200,105.600 217.200 C 105.380 217.200,105.200 217.560,105.200 218.000 C 105.200 218.440,105.020 218.800,104.800 218.800 C 104.580 218.800,104.400 219.120,104.400 219.512 C 104.400 219.903,104.040 220.483,103.600 220.800 C 103.160 221.117,102.800 221.697,102.800 222.088 C 102.800 222.480,102.620 222.800,102.400 222.800 C 102.180 222.800,102.000 223.120,102.000 223.512 C 102.000 223.903,101.640 224.483,101.200 224.800 C 100.760 225.117,100.400 225.697,100.400 226.088 C 100.400 226.480,100.220 226.800,100.000 226.800 C 99.780 226.800,99.600 227.160,99.600 227.600 C 99.600 228.040,99.420 228.400,99.200 228.400 C 98.980 228.400,98.800 228.720,98.800 229.112 C 98.800 229.503,98.440 230.083,98.000 230.400 C 97.560 230.717,97.200 231.297,97.200 231.688 C 97.200 232.080,97.020 232.400,96.800 232.400 C 96.580 232.400,96.400 232.760,96.400 233.200 C 96.400 233.640,96.220 234.000,96.000 234.000 C 95.780 234.000,95.600 234.236,95.600 234.525 C 95.600 234.813,95.240 235.436,94.800 235.908 C 94.360 236.380,94.000 237.029,94.000 237.350 C 94.000 237.671,93.865 237.993,93.700 238.067 C 93.535 238.140,92.967 239.055,92.437 240.100 C 91.908 241.145,91.323 242.000,91.137 242.000 C 90.952 242.000,90.800 242.360,90.800 242.800 C 90.800 243.240,90.648 243.600,90.463 243.600 C 90.277 243.600,89.692 244.455,89.163 245.500 C 88.633 246.545,88.065 247.460,87.900 247.533 C 87.735 247.607,87.600 248.012,87.600 248.433 C 87.600 248.855,87.420 249.200,87.200 249.200 C 86.980 249.200,86.800 249.520,86.800 249.912 C 86.800 250.303,86.440 250.883,86.000 251.200 C 85.560 251.517,85.200 252.097,85.200 252.488 C 85.200 252.880,85.020 253.200,84.800 253.200 C 84.580 253.200,84.400 253.560,84.400 254.000 C 84.400 254.440,84.220 254.800,84.000 254.800 C 83.780 254.800,83.600 255.036,83.600 255.325 C 83.600 255.613,83.240 256.236,82.800 256.708 C 82.360 257.180,82.000 257.844,82.000 258.183 C 82.000 258.522,81.820 258.800,81.600 258.800 C 81.380 258.800,81.200 259.145,81.200 259.567 C 81.200 259.988,81.065 260.393,80.900 260.467 C 80.735 260.540,80.167 261.455,79.637 262.500 C 79.108 263.545,78.523 264.400,78.337 264.400 C 78.152 264.400,78.000 264.678,78.000 265.017 C 78.000 265.356,77.640 266.020,77.200 266.492 C 76.760 266.964,76.400 267.587,76.400 267.875 C 76.400 268.164,76.220 268.400,76.000 268.400 C 75.780 268.400,75.600 268.760,75.600 269.200 C 75.600 269.640,75.448 270.000,75.263 270.000 C 75.077 270.000,74.492 270.855,73.963 271.900 C 73.433 272.945,72.865 273.860,72.700 273.933 C 72.535 274.007,72.400 274.412,72.400 274.833 C 72.400 275.255,72.220 275.600,72.000 275.600 C 71.780 275.600,71.600 275.878,71.600 276.217 C 71.600 276.556,71.240 277.220,70.800 277.692 C 70.360 278.164,70.000 278.787,70.000 279.075 C 70.000 279.364,69.820 279.600,69.600 279.600 C 69.380 279.600,69.200 279.960,69.200 280.400 C 69.200 280.840,69.048 281.200,68.863 281.200 C 68.677 281.200,68.092 282.055,67.563 283.100 C 67.033 284.145,66.465 285.060,66.300 285.133 C 66.135 285.207,66.000 285.612,66.000 286.033 C 66.000 286.455,65.848 286.800,65.663 286.800 C 65.477 286.800,64.892 287.655,64.363 288.700 C 63.833 289.745,63.265 290.660,63.100 290.733 C 62.935 290.807,62.800 291.172,62.800 291.545 C 62.800 291.918,62.440 292.483,62.000 292.800 C 61.560 293.117,61.200 293.697,61.200 294.088 C 61.200 294.480,61.020 294.800,60.800 294.800 C 60.580 294.800,60.400 295.160,60.400 295.600 C 60.400 296.040,60.220 296.400,60.000 296.400 C 59.780 296.400,59.600 296.720,59.600 297.112 C 59.600 297.503,59.240 298.083,58.800 298.400 C 58.360 298.717,58.000 299.297,58.000 299.688 C 58.000 300.080,57.820 300.400,57.600 300.400 C 57.380 300.400,57.200 300.760,57.200 301.200 C 57.200 301.640,57.020 302.000,56.800 302.000 C 56.580 302.000,56.400 302.320,56.400 302.712 C 56.400 303.103,56.040 303.683,55.600 304.000 C 55.160 304.317,54.800 304.897,54.800 305.288 C 54.800 305.680,54.620 306.000,54.400 306.000 C 54.180 306.000,54.000 306.320,54.000 306.712 C 54.000 307.103,53.640 307.683,53.200 308.000 C 52.760 308.317,52.400 308.897,52.400 309.288 C 52.400 309.680,52.220 310.000,52.000 310.000 C 51.780 310.000,51.600 310.360,51.600 310.800 C 51.600 311.240,51.420 311.600,51.200 311.600 C 50.980 311.600,50.800 311.920,50.800 312.312 C 50.800 312.703,50.440 313.283,50.000 313.600 C 49.560 313.917,49.200 314.497,49.200 314.888 C 49.200 315.280,49.020 315.600,48.800 315.600 C 48.580 315.600,48.400 315.960,48.400 316.400 C 48.400 316.840,48.220 317.200,48.000 317.200 C 47.780 317.200,47.600 317.520,47.600 317.912 C 47.600 318.303,47.240 318.883,46.800 319.200 C 46.360 319.517,46.000 320.097,46.000 320.488 C 46.000 320.880,45.820 321.200,45.600 321.200 C 45.380 321.200,45.200 321.520,45.200 321.912 C 45.200 322.303,44.840 322.883,44.400 323.200 C 43.960 323.517,43.600 323.971,43.600 324.209 C 43.600 324.875,42.637 326.793,42.300 326.797 C 42.135 326.799,42.000 327.160,42.000 327.600 C 42.000 328.040,41.848 328.400,41.663 328.400 C 41.477 328.400,40.892 329.255,40.363 330.300 C 39.833 331.345,39.265 332.260,39.100 332.333 C 38.935 332.407,38.800 332.729,38.800 333.050 C 38.800 333.371,38.440 334.020,38.000 334.492 C 37.560 334.964,37.200 335.587,37.200 335.875 C 37.200 336.164,37.020 336.400,36.800 336.400 C 36.580 336.400,36.400 336.760,36.400 337.200 C 36.400 337.640,36.220 338.000,36.000 338.000 C 35.780 338.000,35.600 338.278,35.600 338.617 C 35.600 338.956,35.240 339.620,34.800 340.092 C 34.360 340.564,34.000 341.187,34.000 341.475 C 34.000 341.764,33.820 342.000,33.600 342.000 C 33.380 342.000,33.200 342.360,33.200 342.800 C 33.200 343.240,33.020 343.600,32.800 343.600 C 32.580 343.600,32.400 343.960,32.400 344.400 C 32.400 344.840,32.220 345.200,32.000 345.200 C 31.780 345.200,31.600 345.740,31.600 346.400 L 31.600 347.600 93.720 347.600 C 134.697 347.600,155.976 347.464,156.241 347.199 C 156.504 346.936,171.822 346.798,200.783 346.796 C 229.504 346.795,245.092 346.656,245.404 346.396 C 245.717 346.137,261.814 345.997,291.542 345.997 C 321.531 345.996,337.200 345.859,337.200 345.598 C 337.200 345.341,342.864 345.200,353.200 345.200 L 369.200 345.200 369.200 343.638 C 369.200 342.116,367.778 338.800,367.126 338.800 C 366.947 338.800,366.800 338.455,366.800 338.033 C 366.800 337.612,366.665 337.207,366.500 337.133 C 366.335 337.060,365.767 336.145,365.237 335.100 C 364.708 334.055,364.123 333.200,363.937 333.200 C 363.752 333.200,363.600 332.840,363.600 332.400 C 363.600 331.960,363.420 331.600,363.200 331.600 C 362.980 331.600,362.800 331.364,362.800 331.075 C 362.800 330.787,362.440 330.164,362.000 329.692 C 361.560 329.220,361.200 328.556,361.200 328.217 C 361.200 327.878,361.020 327.600,360.800 327.600 C 360.580 327.600,360.400 327.240,360.400 326.800 C 360.400 326.360,360.220 326.000,360.000 326.000 C 359.780 326.000,359.600 325.764,359.600 325.475 C 359.600 325.187,359.240 324.564,358.800 324.092 C 358.360 323.620,358.000 322.956,358.000 322.617 C 358.000 322.278,357.820 322.000,357.600 322.000 C 357.380 322.000,357.200 321.640,357.200 321.200 C 357.200 320.760,357.020 320.400,356.800 320.400 C 356.580 320.400,356.400 320.080,356.400 319.688 C 356.400 319.297,356.040 318.717,355.600 318.400 C 355.160 318.083,354.800 317.503,354.800 317.112 C 354.800 316.720,354.620 316.400,354.400 316.400 C 354.180 316.400,354.000 316.080,354.000 315.688 C 354.000 315.297,353.640 314.717,353.200 314.400 C 352.760 314.083,352.400 313.503,352.400 313.112 C 352.400 312.720,352.220 312.400,352.000 312.400 C 351.780 312.400,351.600 312.040,351.600 311.600 C 351.600 311.160,351.420 310.800,351.200 310.800 C 350.980 310.800,350.800 310.480,350.800 310.088 C 350.800 309.697,350.440 309.117,350.000 308.800 C 349.560 308.483,349.200 307.903,349.200 307.512 C 349.200 307.120,349.020 306.800,348.800 306.800 C 348.580 306.800,348.400 306.440,348.400 306.000 C 348.400 305.560,348.220 305.200,348.000 305.200 C 347.780 305.200,347.600 304.880,347.600 304.488 C 347.600 304.097,347.240 303.517,346.800 303.200 C 346.360 302.883,346.000 302.303,346.000 301.912 C 346.000 301.520,345.820 301.200,345.600 301.200 C 345.380 301.200,345.200 300.840,345.200 300.400 C 345.200 299.960,345.020 299.600,344.800 299.600 C 344.580 299.600,344.400 299.280,344.400 298.888 C 344.400 298.497,344.040 297.917,343.600 297.600 C 343.160 297.283,342.800 296.703,342.800 296.312 C 342.800 295.920,342.620 295.600,342.400 295.600 C 342.180 295.600,342.000 295.240,342.000 294.800 C 342.000 294.360,341.820 294.000,341.600 294.000 C 341.380 294.000,341.200 293.680,341.200 293.288 C 341.200 292.897,340.840 292.317,340.400 292.000 C 339.960 291.683,339.600 291.103,339.600 290.712 C 339.600 290.320,339.420 290.000,339.200 290.000 C 338.980 290.000,338.800 289.764,338.800 289.475 C 338.800 289.187,338.440 288.564,338.000 288.092 C 337.560 287.620,337.200 286.956,337.200 286.617 C 337.200 286.278,337.020 286.000,336.800 286.000 C 336.580 286.000,336.400 285.640,336.400 285.200 C 336.400 284.760,336.220 284.400,336.000 284.400 C 335.780 284.400,335.600 284.164,335.600 283.875 C 335.600 283.587,335.240 282.964,334.800 282.492 C 334.360 282.020,334.000 281.356,334.000 281.017 C 334.000 280.678,333.820 280.400,333.600 280.400 C 333.380 280.400,333.200 280.040,333.200 279.600 C 333.200 279.160,333.020 278.800,332.800 278.800 C 332.580 278.800,332.400 278.564,332.400 278.275 C 332.400 277.987,332.040 277.364,331.600 276.892 C 331.160 276.420,330.800 275.771,330.800 275.450 C 330.800 275.129,330.665 274.807,330.500 274.733 C 330.335 274.660,329.767 273.745,329.237 272.700 C 328.708 271.655,328.123 270.800,327.937 270.800 C 327.752 270.800,327.600 270.455,327.600 270.033 C 327.600 269.612,327.465 269.207,327.300 269.133 C 327.135 269.060,326.567 268.145,326.037 267.100 C 325.508 266.055,324.923 265.200,324.737 265.200 C 324.552 265.200,324.400 264.840,324.400 264.400 C 324.400 263.960,324.220 263.600,324.000 263.600 C 323.780 263.600,323.600 263.364,323.600 263.075 C 323.600 262.787,323.240 262.164,322.800 261.692 C 322.360 261.220,322.000 260.556,322.000 260.217 C 322.000 259.878,321.820 259.600,321.600 259.600 C 321.380 259.600,321.200 259.322,321.200 258.983 C 321.200 258.644,320.840 257.980,320.400 257.508 C 319.960 257.036,319.600 256.413,319.600 256.125 C 319.600 255.836,319.420 255.600,319.200 255.600 C 318.980 255.600,318.800 255.240,318.800 254.800 C 318.800 254.360,318.620 254.000,318.400 254.000 C 318.180 254.000,318.000 253.722,318.000 253.383 C 318.000 253.044,317.640 252.380,317.200 251.908 C 316.760 251.436,316.400 250.813,316.400 250.525 C 316.400 250.236,316.220 250.000,316.000 250.000 C 315.780 250.000,315.600 249.640,315.600 249.200 C 315.600 248.760,315.420 248.400,315.200 248.400 C 314.980 248.400,314.800 248.164,314.800 247.875 C 314.800 247.587,314.440 246.964,314.000 246.492 C 313.560 246.020,313.200 245.356,313.200 245.017 C 313.200 244.678,313.020 244.400,312.800 244.400 C 312.580 244.400,312.400 244.055,312.400 243.633 C 312.400 243.212,312.265 242.807,312.100 242.733 C 311.935 242.660,311.367 241.745,310.837 240.700 C 310.308 239.655,309.723 238.800,309.537 238.800 C 309.352 238.800,309.200 238.522,309.200 238.183 C 309.200 237.844,308.840 237.180,308.400 236.708 C 307.960 236.236,307.600 235.613,307.600 235.325 C 307.600 235.036,307.420 234.800,307.200 234.800 C 306.980 234.800,306.800 234.440,306.800 234.000 C 306.800 233.560,306.648 233.200,306.463 233.200 C 306.277 233.200,305.692 232.345,305.163 231.300 C 304.633 230.255,304.065 229.340,303.900 229.267 C 303.735 229.193,303.600 228.788,303.600 228.367 C 303.600 227.945,303.420 227.600,303.200 227.600 C 302.980 227.600,302.800 227.280,302.800 226.888 C 302.800 226.497,302.440 225.917,302.000 225.600 C 301.560 225.283,301.200 224.703,301.200 224.312 C 301.200 223.920,301.020 223.600,300.800 223.600 C 300.580 223.600,300.400 223.280,300.400 222.888 C 300.400 222.497,300.040 221.917,299.600 221.600 C 299.160 221.283,298.800 220.703,298.800 220.312 C 298.800 219.920,298.620 219.600,298.400 219.600 C 298.180 219.600,298.000 219.240,298.000 218.800 C 298.000 218.360,297.820 218.000,297.600 218.000 C 297.380 218.000,297.200 217.680,297.200 217.288 C 297.200 216.897,296.840 216.317,296.400 216.000 C 295.960 215.683,295.600 215.103,295.600 214.712 C 295.600 214.320,295.420 214.000,295.200 214.000 C 294.980 214.000,294.800 213.640,294.800 213.200 C 294.800 212.760,294.620 212.400,294.400 212.400 C 294.180 212.400,294.000 212.080,294.000 211.688 C 294.000 211.297,293.640 210.717,293.200 210.400 C 292.760 210.083,292.400 209.503,292.400 209.112 C 292.400 208.720,292.220 208.400,292.000 208.400 C 291.780 208.400,291.600 208.080,291.600 207.688 C 291.600 207.297,291.240 206.717,290.800 206.400 C 290.360 206.083,290.000 205.503,290.000 205.112 C 290.000 204.720,289.820 204.400,289.600 204.400 C 289.380 204.400,289.200 204.040,289.200 203.600 C 289.200 203.160,289.020 202.800,288.800 202.800 C 288.580 202.800,288.400 202.440,288.400 202.000 C 288.400 201.560,288.220 201.200,288.000 201.200 C 287.780 201.200,287.600 200.880,287.600 200.488 C 287.600 200.097,287.240 199.517,286.800 199.200 C 286.360 198.883,286.000 198.303,286.000 197.912 C 286.000 197.520,285.820 197.200,285.600 197.200 C 285.380 197.200,285.200 196.880,285.200 196.488 C 285.200 196.097,284.840 195.517,284.400 195.200 C 283.960 194.883,283.600 194.303,283.600 193.912 C 283.600 193.520,283.420 193.200,283.200 193.200 C 282.980 193.200,282.800 192.840,282.800 192.400 C 282.800 191.960,282.620 191.600,282.400 191.600 C 282.180 191.600,282.000 191.280,282.000 190.888 C 282.000 190.497,281.640 189.917,281.200 189.600 C 280.760 189.283,280.400 188.703,280.400 188.312 C 280.400 187.920,280.220 187.600,280.000 187.600 C 279.780 187.600,279.600 187.240,279.600 186.800 C 279.600 186.360,279.420 186.000,279.200 186.000 C 278.980 186.000,278.800 185.680,278.800 185.288 C 278.800 184.897,278.440 184.317,278.000 184.000 C 277.560 183.683,277.200 183.103,277.200 182.712 C 277.200 182.320,277.020 182.000,276.800 182.000 C 276.580 182.000,276.400 181.680,276.400 181.288 C 276.400 180.897,276.040 180.317,275.600 180.000 C 275.160 179.683,274.800 179.103,274.800 178.712 C 274.800 178.320,274.620 178.000,274.400 178.000 C 274.180 178.000,274.000 177.640,274.000 177.200 C 274.000 176.760,273.820 176.400,273.600 176.400 C 273.380 176.400,273.200 176.080,273.200 175.688 C 273.200 175.297,272.840 174.717,272.400 174.400 C 271.960 174.083,271.600 173.503,271.600 173.112 C 271.600 172.720,271.420 172.400,271.200 172.400 C 270.980 172.400,270.800 172.040,270.800 171.600 C 270.800 171.160,270.620 170.800,270.400 170.800 C 270.180 170.800,270.000 170.480,270.000 170.088 C 270.000 169.697,269.640 169.117,269.200 168.800 C 268.760 168.483,268.400 167.903,268.400 167.512 C 268.400 167.120,268.220 166.800,268.000 166.800 C 267.780 166.800,267.600 166.440,267.600 166.000 C 267.600 165.560,267.420 165.200,267.200 165.200 C 266.980 165.200,266.800 164.880,266.800 164.488 C 266.800 164.097,266.440 163.517,266.000 163.200 C 265.560 162.883,265.200 162.303,265.200 161.912 C 265.200 161.520,265.020 161.200,264.800 161.200 C 264.580 161.200,264.400 160.840,264.400 160.400 C 264.400 159.960,264.220 159.600,264.000 159.600 C 263.780 159.600,263.600 159.280,263.600 158.888 C 263.600 158.497,263.240 157.917,262.800 157.600 C 262.360 157.283,262.000 156.703,262.000 156.312 C 262.000 155.920,261.820 155.600,261.600 155.600 C 261.380 155.600,261.200 155.280,261.200 154.888 C 261.200 154.497,260.840 153.917,260.400 153.600 C 259.960 153.283,259.600 152.703,259.600 152.312 C 259.600 151.920,259.420 151.600,259.200 151.600 C 258.980 151.600,258.800 151.240,258.800 150.800 C 258.800 150.360,258.620 150.000,258.400 150.000 C 258.180 150.000,258.000 149.680,258.000 149.288 C 258.000 148.897,257.640 148.317,257.200 148.000 C 256.760 147.683,256.400 147.103,256.400 146.712 C 256.400 146.320,256.220 146.000,256.000 146.000 C 255.780 146.000,255.600 145.680,255.600 145.288 C 255.600 144.897,255.240 144.317,254.800 144.000 C 254.360 143.683,254.000 143.103,254.000 142.712 C 254.000 142.320,253.820 142.000,253.600 142.000 C 253.380 142.000,253.200 141.640,253.200 141.200 C 253.200 140.760,253.020 140.400,252.800 140.400 C 252.580 140.400,252.400 140.080,252.400 139.688 C 252.400 139.297,252.040 138.717,251.600 138.400 C 251.160 138.083,250.800 137.503,250.800 137.112 C 250.800 136.720,250.620 136.400,250.400 136.400 C 250.180 136.400,250.000 136.040,250.000 135.600 C 250.000 135.160,249.820 134.800,249.600 134.800 C 249.380 134.800,249.200 134.440,249.200 134.000 C 249.200 133.560,249.020 133.200,248.800 133.200 C 248.580 133.200,248.400 132.880,248.400 132.488 C 248.400 132.097,248.040 131.517,247.600 131.200 C 247.160 130.883,246.800 130.303,246.800 129.912 C 246.800 129.520,246.620 129.200,246.400 129.200 C 246.180 129.200,246.000 128.880,246.000 128.488 C 246.000 128.097,245.640 127.517,245.200 127.200 C 244.760 126.883,244.400 126.303,244.400 125.912 C 244.400 125.520,244.220 125.200,244.000 125.200 C 243.780 125.200,243.600 124.840,243.600 124.400 C 243.600 123.960,243.420 123.600,243.200 123.600 C 242.980 123.600,242.800 123.280,242.800 122.888 C 242.800 122.497,242.440 121.917,242.000 121.600 C 241.560 121.283,241.200 120.703,241.200 120.312 C 241.200 119.920,241.020 119.600,240.800 119.600 C 240.580 119.600,240.400 119.240,240.400 118.800 C 240.400 118.360,240.220 118.000,240.000 118.000 C 239.780 118.000,239.600 117.680,239.600 117.288 C 239.600 116.897,239.240 116.317,238.800 116.000 C 238.360 115.683,238.000 115.103,238.000 114.712 C 238.000 114.320,237.820 114.000,237.600 114.000 C 237.380 114.000,237.200 113.680,237.200 113.288 C 237.200 112.897,236.840 112.317,236.400 112.000 C 235.960 111.683,235.600 111.103,235.600 110.712 C 235.600 110.320,235.420 110.000,235.200 110.000 C 234.980 110.000,234.800 109.640,234.800 109.200 C 234.800 108.760,234.620 108.400,234.400 108.400 C 234.180 108.400,234.000 108.040,234.000 107.600 C 234.000 107.160,233.820 106.800,233.600 106.800 C 233.380 106.800,233.200 106.480,233.200 106.088 C 233.200 105.697,232.840 105.117,232.400 104.800 C 231.960 104.483,231.600 103.903,231.600 103.512 C 231.600 103.120,231.420 102.800,231.200 102.800 C 230.980 102.800,230.800 102.480,230.800 102.088 C 230.800 101.697,230.440 101.117,230.000 100.800 C 229.560 100.483,229.200 99.903,229.200 99.512 C 229.200 99.120,229.020 98.800,228.800 98.800 C 228.580 98.800,228.400 98.440,228.400 98.000 C 228.400 97.560,228.220 97.200,228.000 97.200 C 227.780 97.200,227.600 96.880,227.600 96.488 C 227.600 96.097,227.240 95.517,226.800 95.200 C 226.360 94.883,226.000 94.303,226.000 93.912 C 226.000 93.520,225.820 93.200,225.600 93.200 C 225.380 93.200,225.200 92.840,225.200 92.400 C 225.200 91.960,225.020 91.600,224.800 91.600 C 224.580 91.600,224.400 91.280,224.400 90.888 C 224.400 90.497,224.040 89.917,223.600 89.600 C 223.160 89.283,222.800 88.703,222.800 88.312 C 222.800 87.920,222.620 87.600,222.400 87.600 C 222.180 87.600,222.000 87.280,222.000 86.888 C 222.000 86.497,221.640 85.917,221.200 85.600 C 220.760 85.283,220.400 84.703,220.400 84.312 C 220.400 83.920,220.220 83.600,220.000 83.600 C 219.780 83.600,219.600 83.240,219.600 82.800 C 219.600 82.360,219.420 82.000,219.200 82.000 C 218.980 82.000,218.800 81.640,218.800 81.200 C 218.800 80.760,218.620 80.400,218.400 80.400 C 218.180 80.400,218.000 80.080,218.000 79.688 C 218.000 79.297,217.640 78.717,217.200 78.400 C 216.760 78.083,216.400 77.503,216.400 77.112 C 216.400 76.720,216.220 76.400,216.000 76.400 C 215.780 76.400,215.600 76.080,215.600 75.688 C 215.600 75.297,215.240 74.717,214.800 74.400 C 214.360 74.083,214.000 73.503,214.000 73.112 C 214.000 72.720,213.820 72.400,213.600 72.400 C 213.380 72.400,213.200 72.040,213.200 71.600 C 213.200 71.160,213.020 70.800,212.800 70.800 C 212.580 70.800,212.400 70.480,212.400 70.088 C 212.400 69.697,212.040 69.117,211.600 68.800 C 211.160 68.483,210.800 67.903,210.800 67.512 C 210.800 67.120,210.620 66.800,210.400 66.800 C 210.180 66.800,210.000 66.440,210.000 66.000 C 210.000 65.560,209.820 65.200,209.600 65.200 C 209.380 65.200,209.200 64.964,209.200 64.675 C 209.200 64.387,208.840 63.764,208.400 63.292 C 207.960 62.820,207.600 62.156,207.600 61.817 C 207.600 61.478,207.420 61.200,207.200 61.200 C 206.980 61.200,206.800 60.964,206.800 60.675 C 206.800 60.387,206.440 59.764,206.000 59.292 C 205.560 58.820,205.200 58.156,205.200 57.817 C 205.200 57.478,205.020 57.200,204.800 57.200 C 204.580 57.200,204.400 56.840,204.400 56.400 C 204.400 55.960,204.220 55.600,204.000 55.600 C 203.780 55.600,203.600 55.317,203.600 54.971 C 203.600 53.425,201.151 52.604,200.100 53.798 M202.603 86.100 C 203.628 87.736,205.256 90.568,209.099 97.400 C 210.089 99.160,211.309 101.230,211.810 102.000 C 212.311 102.770,213.474 104.840,214.393 106.600 C 215.312 108.360,216.473 110.340,216.972 111.000 C 217.471 111.660,218.731 113.863,219.771 115.896 C 220.812 117.929,221.835 119.698,222.046 119.829 C 222.257 119.959,222.852 120.906,223.368 121.933 C 225.073 125.323,225.955 126.887,226.537 127.548 C 226.853 127.906,227.780 129.550,228.599 131.200 C 229.417 132.850,230.428 134.574,230.847 135.030 C 231.266 135.487,232.476 137.560,233.537 139.638 C 234.598 141.715,235.922 144.132,236.478 145.008 C 238.168 147.667,241.364 153.199,243.354 156.910 C 244.390 158.840,245.694 161.090,246.252 161.910 C 246.810 162.729,247.623 164.120,248.058 165.000 C 249.147 167.200,249.771 168.272,250.442 169.097 C 250.756 169.484,251.730 171.240,252.607 173.000 C 253.483 174.760,254.429 176.346,254.708 176.525 C 254.988 176.703,256.018 178.444,256.997 180.394 C 257.976 182.344,258.952 184.047,259.166 184.179 C 259.380 184.311,260.305 185.900,261.221 187.710 C 262.136 189.519,263.290 191.540,263.783 192.200 C 264.276 192.860,265.455 194.930,266.402 196.800 C 267.349 198.670,268.428 200.560,268.799 201.000 C 269.171 201.440,270.432 203.510,271.603 205.600 C 275.287 212.178,276.982 215.238,277.552 216.336 C 277.855 216.921,278.415 217.760,278.795 218.200 C 279.176 218.640,280.161 220.350,280.985 222.000 C 281.809 223.650,282.720 225.270,283.008 225.600 C 283.646 226.328,285.285 229.200,286.351 231.456 C 286.782 232.367,287.334 233.236,287.579 233.387 C 287.824 233.538,288.941 235.493,290.062 237.731 C 291.183 239.969,292.273 241.911,292.486 242.046 C 292.903 242.312,293.244 242.900,295.144 246.631 C 295.825 247.968,296.842 249.740,297.404 250.567 C 297.965 251.395,298.964 253.091,299.623 254.336 C 300.281 255.581,301.168 257.140,301.593 257.800 C 302.019 258.460,303.208 260.530,304.237 262.400 C 305.265 264.270,306.507 266.430,306.998 267.200 C 307.488 267.970,308.561 269.860,309.384 271.400 C 310.206 272.940,311.117 274.470,311.407 274.800 C 311.698 275.130,312.691 276.840,313.615 278.600 C 314.539 280.360,315.519 282.070,315.794 282.400 C 316.069 282.730,317.058 284.440,317.991 286.200 C 318.925 287.960,320.002 289.850,320.385 290.400 C 320.768 290.950,321.856 292.840,322.802 294.600 C 323.749 296.360,325.006 298.520,325.595 299.400 C 326.184 300.280,327.525 302.620,328.575 304.600 C 329.625 306.580,330.683 308.444,330.926 308.743 C 331.485 309.427,332.845 311.796,334.573 315.092 C 334.946 315.803,335.413 316.485,335.612 316.608 C 335.811 316.731,336.518 317.972,337.184 319.366 C 337.849 320.760,339.025 322.819,339.797 323.941 C 340.569 325.063,341.200 326.151,341.200 326.360 C 341.200 326.568,341.753 327.291,342.428 327.967 C 343.230 328.768,343.612 329.508,343.528 330.097 L 343.400 331.000 324.800 331.265 C 314.570 331.411,286.400 331.733,262.200 331.981 C 238.000 332.229,202.990 332.600,184.400 332.804 C 127.952 333.423,58.199 333.322,57.616 332.619 C 56.954 331.822,57.351 330.785,59.760 327.011 C 60.888 325.245,62.248 322.900,62.784 321.800 C 63.320 320.700,64.013 319.494,64.324 319.119 C 64.635 318.745,65.319 317.620,65.845 316.619 C 66.370 315.619,67.240 313.962,67.777 312.938 C 68.315 311.914,68.926 310.969,69.135 310.838 C 69.345 310.707,70.442 308.824,71.574 306.653 C 72.705 304.482,74.059 302.142,74.583 301.453 C 75.106 300.764,76.283 298.717,77.198 296.904 C 78.114 295.092,79.024 293.509,79.221 293.387 C 79.419 293.265,80.419 291.542,81.443 289.558 C 82.468 287.574,83.535 285.722,83.814 285.443 C 84.093 285.164,84.952 283.690,85.723 282.168 C 86.493 280.645,87.591 278.717,88.162 277.882 C 88.733 277.047,89.200 276.309,89.200 276.241 C 89.200 276.173,90.089 274.606,91.175 272.759 C 92.261 270.911,94.035 267.780,95.117 265.800 C 96.200 263.820,97.578 261.480,98.181 260.600 C 98.783 259.720,99.909 257.740,100.683 256.200 C 101.456 254.660,102.317 253.130,102.596 252.800 C 102.875 252.470,103.953 250.580,104.993 248.600 C 106.033 246.620,107.134 244.717,107.440 244.371 C 107.745 244.025,108.739 242.315,109.647 240.571 C 110.555 238.827,111.883 236.500,112.598 235.400 C 113.313 234.300,114.455 232.292,115.136 230.938 C 115.816 229.584,116.525 228.414,116.709 228.338 C 116.894 228.262,117.899 226.511,118.942 224.447 C 119.986 222.384,121.263 220.134,121.782 219.447 C 122.300 218.761,123.462 216.730,124.364 214.933 C 125.267 213.135,126.162 211.605,126.354 211.533 C 126.546 211.460,127.464 209.870,128.394 208.000 C 129.324 206.130,130.420 204.235,130.829 203.788 C 131.239 203.342,132.471 201.198,133.568 199.023 C 134.665 196.849,135.728 194.964,135.930 194.835 C 136.132 194.706,137.159 192.980,138.213 191.000 C 139.267 189.020,140.355 187.130,140.630 186.800 C 140.905 186.470,141.968 184.580,142.993 182.601 C 144.017 180.621,145.104 178.727,145.407 178.392 C 145.711 178.057,146.707 176.346,147.621 174.591 C 148.535 172.836,149.512 171.130,149.792 170.800 C 150.071 170.470,151.076 168.760,152.025 167.000 C 152.974 165.240,154.140 163.260,154.616 162.600 C 155.092 161.940,156.226 159.905,157.136 158.079 C 158.047 156.252,159.222 154.182,159.748 153.479 C 160.274 152.775,161.461 150.716,162.387 148.902 C 163.312 147.088,164.217 145.513,164.396 145.402 C 164.576 145.291,165.396 143.895,166.218 142.300 C 167.040 140.705,168.195 138.680,168.785 137.800 C 169.374 136.920,170.635 134.760,171.586 133.000 C 172.538 131.240,173.446 129.710,173.606 129.600 C 173.765 129.490,174.822 127.609,175.954 125.420 C 177.087 123.230,178.159 121.340,178.337 121.220 C 178.514 121.099,179.601 119.290,180.750 117.200 C 181.900 115.110,183.187 112.860,183.610 112.200 C 184.033 111.540,184.948 109.920,185.643 108.600 C 186.338 107.280,187.399 105.480,188.001 104.600 C 188.603 103.720,189.841 101.515,190.752 99.700 C 191.663 97.885,192.575 96.400,192.779 96.400 C 192.982 96.400,193.706 95.304,194.387 93.964 C 195.067 92.624,196.294 90.480,197.112 89.199 C 197.930 87.918,198.907 86.314,199.281 85.635 C 200.244 83.890,201.312 84.040,202.603 86.100 " stroke="none" fill="#a4141c" fill-rule="evenodd"></path><path id="path2" d="M231.225 136.737 C 231.211 137.032,231.560 137.731,232.000 138.291 C 232.440 138.850,232.800 139.114,232.800 138.878 C 232.800 138.641,232.607 138.328,232.372 138.183 C 232.137 138.037,231.788 137.532,231.597 137.059 C 231.407 136.587,231.239 136.442,231.225 136.737 M163.053 148.500 L 162.333 149.800 163.158 148.800 C 163.889 147.913,164.214 147.200,163.886 147.200 C 163.824 147.200,163.449 147.785,163.053 148.500 M237.615 148.200 C 237.617 148.420,237.986 149.050,238.436 149.600 C 238.979 150.264,239.115 150.331,238.840 149.800 C 238.166 148.495,237.612 147.772,237.615 148.200 M152.553 166.900 C 151.176 169.236,151.086 169.435,151.787 168.600 C 152.600 167.632,153.300 166.400,153.038 166.400 C 152.933 166.400,152.715 166.625,152.553 166.900 M257.616 183.045 C 257.634 183.436,260.000 186.309,260.000 185.940 C 260.000 185.813,259.460 185.031,258.800 184.200 C 258.140 183.369,257.607 182.850,257.616 183.045 M133.040 200.798 C 132.440 201.899,132.036 202.800,132.141 202.800 C 132.408 202.800,134.443 199.110,134.271 198.937 C 134.193 198.860,133.639 199.697,133.040 200.798 M267.216 199.845 C 267.234 200.236,269.600 203.109,269.600 202.740 C 269.600 202.613,269.060 201.831,268.400 201.000 C 267.740 200.169,267.207 199.650,267.216 199.845 M272.015 207.800 C 272.017 208.020,272.386 208.650,272.836 209.200 C 273.379 209.864,273.515 209.931,273.240 209.400 C 272.566 208.095,272.012 207.372,272.015 207.800 M124.678 215.005 C 124.312 215.772,124.095 216.400,124.196 216.400 C 124.470 216.400,125.684 213.951,125.501 213.768 C 125.414 213.681,125.044 214.238,124.678 215.005 M114.294 233.303 L 113.588 234.600 114.394 233.656 C 115.080 232.852,115.446 231.994,115.100 232.003 C 115.045 232.004,114.682 232.589,114.294 233.303 M90.657 274.209 C 90.101 275.205,89.818 275.912,90.029 275.782 C 90.448 275.523,92.123 272.400,91.842 272.400 C 91.747 272.400,91.213 273.214,90.657 274.209 M82.234 288.674 C 81.453 290.144,80.876 291.409,80.952 291.485 C 81.027 291.561,81.754 290.357,82.566 288.811 C 83.379 287.265,83.956 286.000,83.849 286.000 C 83.741 286.000,83.015 287.203,82.234 288.674 M320.360 291.400 C 321.034 292.705,321.588 293.428,321.585 293.000 C 321.583 292.780,321.214 292.150,320.764 291.600 C 320.221 290.936,320.085 290.869,320.360 291.400 M73.776 303.238 C 73.208 304.139,72.807 304.940,72.885 305.019 C 72.964 305.098,73.513 304.361,74.105 303.381 C 75.455 301.145,75.174 301.023,73.776 303.238 M331.855 311.400 C 332.780 312.979,332.800 313.003,332.800 312.511 C 332.800 312.279,332.429 311.664,331.976 311.144 L 331.153 310.200 331.855 311.400 M333.160 313.800 C 333.834 315.105,334.388 315.828,334.385 315.400 C 334.383 315.180,334.014 314.550,333.564 314.000 C 333.021 313.336,332.885 313.269,333.160 313.800 M67.014 315.035 C 66.641 315.604,66.405 316.138,66.489 316.222 C 66.573 316.307,66.958 315.841,67.344 315.188 C 68.206 313.728,67.948 313.609,67.014 315.035 M59.053 328.900 L 58.333 330.200 59.158 329.200 C 59.889 328.313,60.214 327.600,59.886 327.600 C 59.824 327.600,59.449 328.185,59.053 328.900 M57.867 330.667 C 57.505 331.028,57.528 332.308,57.900 332.538 C 58.065 332.640,58.200 332.201,58.200 331.562 C 58.200 330.923,58.185 330.400,58.167 330.400 C 58.148 330.400,58.013 330.520,57.867 330.667 M315.200 330.818 C 314.762 331.115,314.924 331.152,315.800 330.956 C 317.271 330.627,317.590 330.398,316.567 330.406 C 316.145 330.409,315.530 330.595,315.200 330.818 M237.445 331.528 C 237.333 331.708,237.773 331.777,238.421 331.682 C 239.070 331.587,239.600 331.440,239.600 331.355 C 239.600 331.050,237.643 331.207,237.445 331.528 " stroke="none" fill="#d32d29" fill-rule="evenodd"></path><path id="path3" d="M199.749 86.099 C 199.379 86.813,198.520 88.244,197.839 89.277 C 195.380 93.009,194.400 94.714,194.406 95.252 C 194.412 95.857,194.764 95.309,196.691 91.686 C 197.401 90.351,198.170 89.142,198.399 89.001 C 198.861 88.715,200.929 84.800,200.617 84.800 C 200.509 84.800,200.118 85.385,199.749 86.099 M202.000 86.572 C 202.000 87.040,205.612 93.560,206.006 93.804 C 206.197 93.922,205.439 92.349,204.321 90.309 C 202.145 86.335,202.000 86.103,202.000 86.572 M208.470 98.200 C 209.610 100.400,210.685 102.297,210.858 102.415 C 211.032 102.534,211.651 103.524,212.236 104.615 C 212.820 105.707,213.901 107.730,214.638 109.112 C 215.374 110.493,216.397 112.203,216.911 112.912 C 217.424 113.620,218.458 115.406,219.208 116.881 C 219.958 118.355,220.639 119.494,220.722 119.411 C 220.805 119.328,220.631 118.810,220.336 118.260 C 220.041 117.710,219.275 116.211,218.633 114.930 C 217.990 113.648,217.153 112.240,216.772 111.800 C 216.127 111.057,215.072 109.200,212.531 104.340 C 211.971 103.269,211.363 102.301,211.181 102.188 C 210.999 102.076,210.169 100.644,209.338 99.006 C 208.506 97.369,207.504 95.618,207.111 95.115 C 206.718 94.612,207.329 96.000,208.470 98.200 M193.581 96.513 C 193.241 96.781,192.180 98.440,191.224 100.200 C 190.267 101.960,189.008 104.120,188.427 105.000 C 187.845 105.880,186.932 107.500,186.398 108.600 C 185.865 109.700,185.107 111.029,184.714 111.554 C 184.321 112.079,184.000 112.689,184.000 112.910 C 184.000 113.469,185.603 111.002,186.800 108.600 C 187.349 107.500,188.274 105.880,188.855 105.000 C 189.437 104.120,190.591 102.140,191.421 100.600 C 192.250 99.060,193.291 97.395,193.734 96.900 C 194.615 95.916,194.550 95.750,193.581 96.513 M182.281 115.500 C 179.574 120.656,179.025 121.600,178.733 121.600 C 178.550 121.600,178.400 121.802,178.400 122.049 C 178.400 122.885,179.431 121.687,180.416 119.706 C 180.938 118.658,181.658 117.350,182.017 116.800 C 182.723 115.719,183.272 114.400,183.017 114.400 C 182.930 114.400,182.599 114.895,182.281 115.500 M222.418 122.232 C 224.519 126.170,224.795 126.620,224.798 126.114 C 224.799 125.847,224.260 124.776,223.600 123.736 C 222.940 122.695,222.400 121.631,222.400 121.371 C 222.400 121.111,222.120 120.665,221.777 120.381 C 221.435 120.097,221.723 120.930,222.418 122.232 M176.736 125.300 C 176.431 125.795,175.922 126.740,175.605 127.400 C 175.288 128.060,174.679 129.140,174.252 129.800 C 173.735 130.599,173.688 130.799,174.111 130.400 C 174.734 129.811,177.739 124.400,177.443 124.400 C 177.360 124.400,177.042 124.805,176.736 125.300 M225.652 128.000 C 226.201 128.770,227.246 130.604,227.973 132.075 C 228.700 133.547,229.606 135.085,229.987 135.494 C 230.367 135.902,230.782 136.498,230.908 136.818 C 231.096 137.295,231.143 137.285,231.168 136.762 C 231.186 136.411,230.862 135.818,230.449 135.444 C 230.036 135.071,228.934 133.251,228.000 131.400 C 227.066 129.549,225.931 127.712,225.477 127.318 C 224.808 126.736,224.841 126.865,225.652 128.000 M173.015 131.576 C 172.766 131.979,170.654 135.898,169.719 137.692 C 169.405 138.293,168.992 138.881,168.800 139.000 C 168.360 139.272,167.145 141.678,167.346 141.879 C 167.428 141.961,167.794 141.400,168.158 140.631 C 168.523 139.863,168.985 139.133,169.185 139.009 C 169.386 138.885,169.805 138.293,170.116 137.692 C 170.428 137.091,171.338 135.385,172.139 133.900 C 173.325 131.699,173.929 130.097,173.015 131.576 M232.400 139.250 C 232.400 139.598,233.637 142.000,233.817 142.000 C 233.904 142.000,233.861 141.685,233.721 141.300 C 233.433 140.506,232.400 138.903,232.400 139.250 M166.037 143.927 C 165.609 144.766,164.975 145.689,164.629 145.976 C 164.283 146.263,164.011 146.791,164.025 147.149 C 164.043 147.610,164.152 147.549,164.397 146.941 C 164.588 146.468,164.939 145.961,165.178 145.814 C 165.657 145.518,167.336 142.400,167.016 142.400 C 166.906 142.400,166.466 143.087,166.037 143.927 M234.000 142.562 C 234.000 142.710,234.630 143.767,235.400 144.910 C 236.810 147.004,237.387 147.306,236.117 145.286 C 235.107 143.678,234.000 142.254,234.000 142.562 M163.468 148.300 C 162.429 150.034,161.589 151.722,161.706 151.839 C 161.786 151.919,162.335 151.088,162.927 149.992 C 163.783 148.408,164.217 147.049,163.468 148.300 M238.218 149.900 C 240.033 152.710,240.800 153.757,240.800 153.422 C 240.800 153.011,237.964 148.800,237.688 148.800 C 237.589 148.800,237.828 149.295,238.218 149.900 M159.862 154.331 C 159.498 154.734,159.200 155.211,159.200 155.393 C 159.200 155.574,159.560 155.307,160.000 154.800 C 160.440 154.293,160.800 153.815,160.800 153.739 C 160.800 153.439,160.495 153.632,159.862 154.331 M156.350 160.900 C 155.874 161.835,155.094 163.140,154.617 163.800 C 153.534 165.297,152.419 167.871,153.393 166.624 C 153.727 166.196,154.000 165.673,154.000 165.461 C 154.000 165.249,154.424 164.519,154.942 163.838 C 155.988 162.464,157.729 159.200,157.416 159.200 C 157.306 159.200,156.827 159.965,156.350 160.900 M246.645 164.500 C 247.227 165.655,248.291 167.500,249.009 168.600 C 249.728 169.700,250.818 171.542,251.432 172.692 C 252.046 173.843,252.614 174.720,252.693 174.640 C 252.873 174.460,251.126 171.253,249.403 168.600 C 248.688 167.500,247.627 165.655,247.045 164.500 C 246.463 163.345,245.897 162.400,245.787 162.400 C 245.677 162.400,246.063 163.345,246.645 164.500 M253.075 175.879 C 253.390 176.736,255.200 178.528,255.200 177.984 C 255.200 177.777,254.840 177.382,254.400 177.107 C 253.960 176.832,253.600 176.391,253.600 176.127 C 253.600 175.863,253.422 175.537,253.205 175.403 C 252.968 175.256,252.916 175.448,253.075 175.879 M145.668 178.825 C 145.155 179.474,144.825 180.229,144.936 180.503 C 145.077 180.851,145.146 180.827,145.168 180.422 C 145.186 180.104,145.684 179.339,146.275 178.722 C 146.866 178.105,147.181 177.610,146.975 177.622 C 146.769 177.634,146.180 178.175,145.668 178.825 M143.428 183.061 C 142.856 184.084,142.452 184.985,142.529 185.063 C 142.607 185.140,143.161 184.303,143.760 183.202 C 144.360 182.101,144.764 181.200,144.659 181.200 C 144.554 181.200,144.000 182.037,143.428 183.061 M259.479 186.300 C 259.767 187.094,260.800 188.697,260.800 188.350 C 260.800 188.002,259.563 185.600,259.383 185.600 C 259.296 185.600,259.339 185.915,259.479 186.300 M262.441 191.900 C 263.546 193.728,264.800 195.402,264.800 195.048 C 264.800 194.705,261.938 190.400,261.711 190.400 C 261.614 190.400,261.943 191.075,262.441 191.900 M138.246 192.186 C 137.891 192.728,137.600 193.324,137.600 193.511 C 137.600 193.697,137.264 194.209,136.854 194.650 C 136.444 195.090,135.888 195.889,135.619 196.425 C 134.729 198.197,137.033 195.195,138.171 193.100 C 139.272 191.073,139.315 190.555,138.246 192.186 M265.790 197.501 C 266.981 199.806,267.194 200.126,267.189 199.600 C 267.185 199.270,266.811 198.550,266.356 198.000 C 265.902 197.450,265.647 197.226,265.790 197.501 M133.400 200.800 C 133.059 201.460,132.869 202.000,132.979 202.000 C 133.089 202.000,133.459 201.460,133.800 200.800 C 134.141 200.140,134.331 199.600,134.221 199.600 C 134.111 199.600,133.741 200.140,133.400 200.800 M131.500 203.779 C 130.895 204.537,130.404 205.302,130.409 205.479 C 130.419 205.829,131.778 204.225,132.425 203.100 C 133.049 202.015,132.706 202.267,131.500 203.779 M269.960 204.600 C 270.634 205.905,271.188 206.628,271.185 206.200 C 271.183 205.980,270.814 205.350,270.364 204.800 C 269.821 204.136,269.685 204.069,269.960 204.600 M129.429 207.261 C 129.083 207.955,128.800 208.625,128.800 208.750 C 128.800 209.097,129.833 207.494,130.121 206.700 C 130.536 205.555,130.106 205.904,129.429 207.261 M273.160 210.200 C 273.834 211.505,274.388 212.228,274.385 211.800 C 274.383 211.580,274.014 210.950,273.564 210.400 C 273.021 209.736,272.885 209.669,273.160 210.200 M125.578 213.858 C 125.357 214.439,125.064 215.097,124.926 215.319 C 124.789 215.542,124.866 215.606,125.099 215.463 C 125.539 215.190,126.500 212.800,126.169 212.800 C 126.065 212.800,125.799 213.276,125.578 213.858 M276.250 215.900 C 276.845 216.945,277.628 218.160,277.989 218.600 C 278.350 219.040,279.334 220.750,280.177 222.400 C 281.019 224.050,282.061 225.850,282.491 226.400 C 282.921 226.950,283.533 227.940,283.852 228.600 C 285.246 231.487,286.127 233.054,286.775 233.800 C 287.158 234.240,288.331 236.310,289.382 238.400 C 290.433 240.490,291.500 242.380,291.753 242.600 C 292.005 242.820,292.827 244.170,293.580 245.600 C 294.332 247.030,295.449 249.010,296.062 250.000 C 296.676 250.990,297.795 252.970,298.550 254.400 C 299.306 255.830,300.382 257.671,300.943 258.490 C 301.504 259.310,302.807 261.560,303.839 263.490 C 304.871 265.421,305.931 267.270,306.194 267.600 C 306.457 267.930,307.436 269.640,308.370 271.400 C 309.304 273.160,310.325 274.887,310.640 275.238 C 310.955 275.589,311.927 277.282,312.800 279.000 C 313.673 280.718,314.637 282.411,314.941 282.762 C 315.245 283.113,316.225 284.778,317.118 286.462 C 318.011 288.146,319.188 290.231,319.735 291.096 C 320.281 291.961,321.495 294.094,322.433 295.835 C 323.372 297.576,324.534 299.540,325.017 300.200 C 325.500 300.860,326.381 302.390,326.976 303.600 C 327.570 304.810,328.240 305.980,328.464 306.200 C 329.074 306.801,326.422 301.582,325.414 300.200 C 324.933 299.540,323.772 297.576,322.833 295.835 C 321.895 294.094,320.681 291.961,320.135 291.096 C 319.588 290.231,318.411 288.146,317.518 286.462 C 316.625 284.778,315.645 283.113,315.341 282.762 C 315.037 282.411,314.073 280.718,313.200 279.000 C 312.327 277.282,311.355 275.589,311.040 275.238 C 310.725 274.887,309.704 273.160,308.770 271.400 C 307.836 269.640,306.857 267.930,306.594 267.600 C 306.331 267.270,305.271 265.421,304.239 263.490 C 303.207 261.560,301.904 259.310,301.343 258.490 C 300.782 257.671,299.693 255.755,298.923 254.232 C 298.152 252.710,297.314 251.254,297.061 250.998 C 296.807 250.741,295.880 249.106,295.000 247.365 C 294.120 245.624,293.265 244.140,293.100 244.067 C 292.935 243.993,292.800 243.687,292.800 243.387 C 292.800 243.086,292.557 242.696,292.261 242.520 C 291.964 242.344,290.855 240.490,289.796 238.400 C 288.737 236.310,287.558 234.240,287.175 233.800 C 286.527 233.054,285.646 231.487,284.252 228.600 C 283.933 227.940,283.321 226.950,282.891 226.400 C 282.461 225.850,281.419 224.050,280.577 222.400 C 279.734 220.750,278.750 219.040,278.389 218.600 C 278.028 218.160,277.245 216.945,276.650 215.900 C 276.054 214.855,275.476 214.000,275.366 214.000 C 275.256 214.000,275.654 214.855,276.250 215.900 M122.288 219.747 C 121.504 220.928,120.106 223.403,119.181 225.247 C 118.256 227.091,117.297 228.732,117.050 228.894 C 116.730 229.103,116.743 229.190,117.096 229.194 C 117.369 229.197,118.427 227.535,119.448 225.500 C 120.469 223.465,121.790 221.080,122.384 220.200 C 123.777 218.137,124.085 217.600,123.880 217.600 C 123.788 217.600,123.072 218.566,122.288 219.747 M115.879 230.774 C 115.506 231.406,115.201 232.076,115.201 232.262 C 115.202 232.448,115.572 231.995,116.023 231.255 C 116.474 230.515,116.779 229.846,116.701 229.767 C 116.622 229.689,116.252 230.142,115.879 230.774 M113.331 235.323 C 111.613 237.904,109.439 242.000,109.788 242.000 C 109.898 242.000,110.544 240.900,111.222 239.556 C 111.900 238.212,113.086 236.216,113.857 235.119 C 114.628 234.022,115.196 233.062,115.119 232.986 C 115.043 232.909,114.238 233.961,113.331 235.323 M109.200 242.705 C 109.200 242.946,108.935 243.408,108.610 243.733 C 107.899 244.444,105.197 248.998,105.208 249.467 C 105.212 249.650,105.887 248.696,106.708 247.347 C 107.529 245.998,108.539 244.417,108.954 243.835 C 109.369 243.252,109.594 242.661,109.454 242.521 C 109.314 242.381,109.200 242.464,109.200 242.705 M103.548 252.335 C 102.750 253.581,101.552 255.680,100.886 257.000 C 100.221 258.320,99.217 260.071,98.656 260.890 C 98.096 261.710,96.793 263.960,95.761 265.890 C 94.729 267.821,93.661 269.670,93.389 270.000 C 92.736 270.790,91.127 274.000,91.384 274.000 C 91.494 274.000,91.968 273.235,92.438 272.300 C 92.909 271.365,93.516 270.330,93.789 270.000 C 94.061 269.670,95.129 267.821,96.161 265.890 C 97.193 263.960,98.496 261.710,99.057 260.890 C 99.618 260.071,100.680 258.207,101.418 256.750 C 102.156 255.292,103.329 253.257,104.024 252.227 C 104.719 251.197,105.223 250.290,105.144 250.212 C 105.065 250.133,104.347 251.089,103.548 252.335 M90.300 275.414 C 89.915 275.929,89.600 276.482,89.600 276.644 C 89.600 276.805,89.345 277.221,89.033 277.569 C 88.283 278.403,84.675 285.325,85.139 285.038 C 85.337 284.916,85.999 283.777,86.610 282.508 C 87.221 281.238,88.233 279.426,88.860 278.480 C 89.487 277.534,90.000 276.648,90.000 276.511 C 90.000 276.375,90.299 275.933,90.664 275.529 C 91.030 275.125,91.255 274.724,91.164 274.637 C 91.074 274.550,90.685 274.900,90.300 275.414 M81.044 291.498 C 80.448 292.544,79.421 294.277,78.762 295.349 C 78.104 296.422,77.634 297.367,77.718 297.451 C 77.802 297.535,78.359 296.748,78.956 295.702 C 79.552 294.656,80.579 292.923,81.238 291.851 C 81.896 290.778,82.366 289.833,82.282 289.749 C 82.198 289.665,81.641 290.452,81.044 291.498 M76.920 298.700 C 76.780 299.085,76.147 300.165,75.513 301.100 C 74.880 302.035,74.452 302.800,74.562 302.800 C 74.832 302.800,77.001 299.575,77.320 298.700 C 77.460 298.315,77.485 298.000,77.375 298.000 C 77.265 298.000,77.060 298.315,76.920 298.700 M72.634 305.989 C 71.821 307.535,71.244 308.800,71.351 308.800 C 71.616 308.800,74.422 303.488,74.248 303.315 C 74.173 303.239,73.446 304.443,72.634 305.989 M329.077 307.574 C 329.189 308.000,329.622 308.658,330.040 309.036 C 330.458 309.414,330.800 309.944,330.800 310.213 C 330.800 310.482,331.065 310.922,331.389 311.191 C 331.903 311.617,331.902 311.526,331.381 310.482 C 331.052 309.823,330.517 309.063,330.192 308.793 C 329.866 308.523,329.600 308.065,329.600 307.775 C 329.600 307.485,329.437 307.146,329.237 307.023 C 329.038 306.900,328.966 307.147,329.077 307.574 M70.354 310.100 C 70.094 310.595,69.746 311.090,69.582 311.200 C 69.419 311.310,68.436 313.020,67.398 315.000 C 66.361 316.980,65.290 318.870,65.019 319.200 C 64.747 319.530,63.682 321.368,62.650 323.284 C 61.619 325.200,60.601 326.876,60.388 327.008 C 60.175 327.139,60.000 327.441,60.000 327.678 C 60.000 328.393,61.385 326.395,63.382 322.800 C 64.420 320.930,66.150 317.870,67.227 316.000 C 68.303 314.130,69.187 312.375,69.192 312.100 C 69.196 311.825,69.375 311.600,69.590 311.600 C 69.804 311.600,70.259 311.060,70.600 310.400 C 70.941 309.740,71.132 309.200,71.024 309.200 C 70.916 309.200,70.615 309.605,70.354 310.100 M332.000 312.262 C 332.000 312.489,332.699 313.757,333.553 315.079 C 334.408 316.401,335.849 318.891,336.756 320.612 C 337.662 322.334,338.652 324.025,338.956 324.371 C 339.259 324.717,339.891 325.765,340.362 326.700 C 340.832 327.635,341.306 328.400,341.415 328.400 C 341.770 328.400,339.680 324.565,339.031 324.026 C 338.684 323.738,338.400 323.347,338.400 323.157 C 338.400 322.767,335.663 317.821,333.457 314.224 C 332.656 312.916,332.000 312.034,332.000 312.262 M342.397 329.189 C 343.947 330.170,341.778 330.392,329.586 330.500 L 317.000 330.612 329.651 330.706 C 340.321 330.785,342.378 330.709,342.785 330.218 C 343.314 329.581,343.031 328.796,342.276 328.806 C 341.990 328.810,342.038 328.963,342.397 329.189 M58.362 330.523 C 57.247 332.971,53.374 332.801,110.087 332.794 C 138.529 332.791,162.008 332.656,162.262 332.494 C 162.516 332.332,139.251 332.247,110.562 332.304 C 53.945 332.418,56.840 332.520,58.873 330.487 C 59.134 330.226,59.230 329.897,59.088 329.755 C 58.946 329.613,58.620 329.958,58.362 330.523 M297.800 330.800 L 280.600 331.013 297.600 331.100 C 308.053 331.154,314.831 331.038,315.200 330.800 C 315.530 330.587,315.620 330.452,315.400 330.500 C 315.180 330.548,307.260 330.683,297.800 330.800 M237.395 331.208 C 237.231 331.473,231.556 331.641,221.271 331.687 C 212.542 331.726,195.950 331.863,184.400 331.991 L 163.400 332.225 184.400 332.196 C 231.722 332.133,236.591 332.061,237.838 331.411 C 238.566 331.031,238.747 330.804,238.324 330.802 C 237.952 330.801,237.534 330.984,237.395 331.208 M249.700 331.500 C 255.365 331.562,264.635 331.562,270.300 331.500 C 275.965 331.437,271.330 331.386,260.000 331.386 C 248.670 331.386,244.035 331.437,249.700 331.500 " stroke="none" fill="#e9342c" fill-rule="evenodd"></path><path id="path4" d="M199.281 85.646 C 198.907 86.331,198.172 87.546,197.650 88.346 C 196.861 89.552,196.834 89.679,197.492 89.090 C 197.927 88.700,198.698 87.575,199.205 86.590 C 200.091 84.868,201.600 84.078,201.600 85.338 C 201.600 85.634,201.960 86.202,202.400 86.600 C 202.840 86.998,203.204 87.521,203.209 87.762 C 203.214 88.003,203.584 88.650,204.032 89.200 C 204.798 90.142,204.795 90.097,203.970 88.412 C 201.937 84.261,200.502 83.414,199.281 85.646 M196.067 90.841 C 195.791 91.284,195.021 92.716,194.357 94.023 C 193.692 95.330,192.982 96.400,192.779 96.400 C 192.576 96.400,191.767 97.677,190.980 99.239 C 190.194 100.800,189.719 101.974,189.925 101.847 C 190.130 101.719,190.776 100.641,191.358 99.449 C 191.941 98.258,192.695 97.053,193.033 96.773 C 193.371 96.492,193.967 95.618,194.356 94.831 C 194.746 94.044,195.464 92.704,195.952 91.853 C 196.866 90.259,196.963 89.406,196.067 90.841 M204.804 90.488 C 204.796 91.071,208.302 96.800,208.667 96.800 C 208.893 96.800,208.181 95.517,206.368 92.660 C 205.510 91.307,204.806 90.330,204.804 90.488 M208.807 97.259 C 208.796 97.666,211.219 102.163,211.572 102.394 C 211.746 102.507,212.188 103.185,212.554 103.900 C 212.921 104.615,213.310 105.200,213.418 105.200 C 213.692 105.200,212.446 102.947,209.546 98.200 C 209.143 97.540,208.810 97.117,208.807 97.259 M187.933 104.726 C 187.134 105.977,186.007 107.900,185.430 109.000 C 184.852 110.100,184.033 111.540,183.609 112.200 C 183.186 112.860,181.900 115.110,180.750 117.200 C 179.601 119.290,178.514 121.099,178.337 121.220 C 178.159 121.340,177.087 123.230,175.954 125.420 C 174.822 127.609,173.765 129.490,173.606 129.600 C 173.446 129.710,172.538 131.240,171.586 133.000 C 170.635 134.760,169.374 136.920,168.785 137.800 C 168.195 138.680,167.040 140.705,166.218 142.300 C 165.396 143.895,164.576 145.291,164.396 145.402 C 164.217 145.513,163.312 147.088,162.387 148.902 C 161.461 150.716,160.274 152.775,159.748 153.479 C 159.222 154.182,158.047 156.252,157.136 158.079 C 156.226 159.905,155.092 161.940,154.616 162.600 C 154.140 163.260,152.974 165.240,152.025 167.000 C 151.076 168.760,150.071 170.470,149.792 170.800 C 149.512 171.130,148.535 172.836,147.621 174.591 C 146.707 176.346,145.711 178.057,145.407 178.392 C 145.104 178.727,144.017 180.621,142.993 182.601 C 141.968 184.580,140.905 186.470,140.630 186.800 C 140.355 187.130,139.267 189.020,138.213 191.000 C 137.159 192.980,136.123 194.711,135.910 194.847 C 135.445 195.145,132.760 200.494,132.970 200.704 C 133.051 200.785,133.583 199.867,134.152 198.664 C 134.722 197.461,135.607 195.964,136.120 195.338 C 136.633 194.712,137.649 193.030,138.379 191.600 C 139.108 190.170,140.461 187.740,141.385 186.200 C 142.309 184.660,143.500 182.500,144.032 181.400 C 144.565 180.300,145.331 179.040,145.737 178.600 C 146.142 178.160,147.189 176.384,148.065 174.653 C 148.940 172.922,149.829 171.302,150.041 171.053 C 150.774 170.190,153.600 165.242,153.600 164.822 C 153.600 164.590,153.915 164.082,154.300 163.693 C 154.685 163.304,155.966 161.122,157.146 158.844 C 158.327 156.565,159.575 154.371,159.920 153.969 C 160.265 153.566,161.408 151.583,162.461 149.563 C 163.514 147.543,164.617 145.600,164.912 145.245 C 165.207 144.890,166.048 143.430,166.781 142.000 C 167.514 140.570,168.338 139.130,168.613 138.800 C 168.887 138.470,170.052 136.490,171.200 134.400 C 172.348 132.310,173.524 130.330,173.813 130.000 C 174.102 129.670,175.185 127.780,176.220 125.800 C 177.255 123.820,178.334 121.930,178.618 121.600 C 178.903 121.270,179.891 119.560,180.813 117.800 C 181.736 116.040,182.831 114.228,183.246 113.774 C 183.661 113.320,184.000 112.667,184.000 112.323 C 184.000 111.979,184.266 111.477,184.591 111.208 C 184.916 110.938,185.669 109.701,186.266 108.459 C 186.862 107.216,187.873 105.422,188.513 104.472 C 189.153 103.521,189.612 102.678,189.531 102.598 C 189.451 102.518,188.732 103.476,187.933 104.726 M213.612 105.632 C 213.606 105.760,214.049 106.750,214.598 107.832 C 215.147 108.914,215.596 109.530,215.596 109.200 C 215.596 108.641,213.640 105.123,213.612 105.632 M216.013 110.225 C 216.006 110.458,216.315 110.998,216.700 111.425 C 217.312 112.102,218.140 113.580,220.720 118.600 C 221.060 119.260,221.497 119.907,221.692 120.038 C 222.008 120.250,222.570 121.247,224.717 125.400 C 225.059 126.060,225.724 127.140,226.196 127.800 C 226.668 128.460,227.652 130.170,228.382 131.600 C 229.113 133.030,230.023 134.560,230.404 135.000 C 230.785 135.440,231.345 136.278,231.648 136.862 C 231.952 137.446,232.903 139.293,233.763 140.966 C 234.622 142.639,235.392 143.942,235.472 143.861 C 235.708 143.626,231.684 135.943,230.847 135.030 C 230.428 134.574,229.417 132.850,228.599 131.200 C 227.780 129.550,226.853 127.906,226.537 127.548 C 225.965 126.898,225.029 125.247,223.507 122.200 C 223.068 121.320,222.427 120.281,222.084 119.891 C 221.740 119.501,220.636 117.596,219.630 115.658 C 217.758 112.053,216.035 109.465,216.013 110.225 M236.000 144.506 C 236.000 144.917,240.131 152.002,240.282 151.851 C 240.361 151.772,239.503 150.108,238.376 148.154 C 236.277 144.515,236.000 144.090,236.000 144.506 M240.800 152.586 C 240.800 153.009,244.701 160.308,245.643 161.647 C 246.048 162.223,246.989 163.843,247.734 165.247 C 248.479 166.651,249.535 168.458,250.080 169.262 C 250.626 170.066,251.757 172.091,252.594 173.762 C 253.431 175.433,254.268 176.800,254.454 176.800 C 254.640 176.800,255.599 178.406,256.585 180.369 C 257.571 182.333,258.552 184.047,258.766 184.179 C 258.980 184.311,259.909 185.900,260.830 187.710 C 261.751 189.519,262.995 191.720,263.596 192.600 C 264.196 193.480,265.371 195.550,266.207 197.200 C 267.043 198.850,268.030 200.560,268.399 201.000 C 269.021 201.740,270.573 204.453,275.720 213.800 C 276.810 215.780,278.014 217.760,278.394 218.200 C 278.775 218.640,279.761 220.350,280.585 222.000 C 281.409 223.650,282.320 225.270,282.608 225.600 C 283.246 226.328,284.885 229.200,285.951 231.456 C 286.382 232.367,286.934 233.236,287.179 233.387 C 287.424 233.539,288.611 235.628,289.816 238.031 C 291.021 240.434,292.164 242.400,292.357 242.400 C 292.549 242.400,292.812 242.715,292.942 243.100 C 293.269 244.075,296.767 250.469,297.373 251.200 C 297.647 251.530,298.733 253.420,299.787 255.400 C 300.841 257.380,301.839 259.090,302.006 259.200 C 302.173 259.310,303.274 261.157,304.454 263.305 C 308.257 270.227,309.010 271.544,309.356 271.875 C 309.817 272.316,307.682 268.095,306.799 266.820 C 306.411 266.259,305.255 264.270,304.230 262.400 C 303.205 260.530,302.019 258.460,301.593 257.800 C 301.168 257.140,300.281 255.581,299.623 254.336 C 298.964 253.091,297.965 251.395,297.404 250.567 C 296.842 249.740,295.825 247.968,295.144 246.631 C 293.244 242.900,292.903 242.312,292.486 242.046 C 292.273 241.911,291.183 239.969,290.062 237.731 C 288.941 235.493,287.824 233.538,287.579 233.387 C 287.334 233.236,286.782 232.367,286.351 231.456 C 285.285 229.200,283.646 226.328,283.008 225.600 C 282.720 225.270,281.809 223.650,280.985 222.000 C 280.161 220.350,279.176 218.640,278.795 218.200 C 278.415 217.760,277.855 216.921,277.552 216.336 C 276.982 215.238,275.287 212.178,271.603 205.600 C 270.432 203.510,269.171 201.440,268.799 201.000 C 268.428 200.560,267.349 198.670,266.402 196.800 C 265.455 194.930,264.276 192.860,263.783 192.200 C 263.290 191.540,262.136 189.519,261.221 187.710 C 260.305 185.900,259.380 184.311,259.166 184.179 C 258.952 184.047,257.976 182.344,256.997 180.394 C 256.018 178.444,254.988 176.703,254.708 176.525 C 254.429 176.346,253.483 174.760,252.607 173.000 C 251.730 171.240,250.756 169.484,250.442 169.097 C 249.771 168.272,249.147 167.200,248.058 165.000 C 247.623 164.120,246.798 162.712,246.225 161.871 C 245.653 161.030,244.260 158.600,243.129 156.471 C 240.907 152.285,240.800 152.107,240.800 152.586 M131.488 202.700 C 130.912 203.525,129.600 205.820,128.572 207.800 C 127.545 209.780,126.542 211.461,126.343 211.536 C 125.976 211.675,124.800 213.734,124.800 214.239 C 124.800 214.834,126.849 211.650,128.429 208.600 C 129.341 206.840,130.489 204.860,130.981 204.200 C 131.957 202.890,132.915 201.200,132.681 201.200 C 132.600 201.200,132.063 201.875,131.488 202.700 M123.562 216.500 C 123.093 217.435,122.315 218.740,121.833 219.400 C 120.778 220.847,119.200 223.546,119.200 223.904 C 119.200 224.046,120.026 222.911,121.036 221.381 C 122.961 218.465,124.954 214.800,124.615 214.800 C 124.506 214.800,124.032 215.565,123.562 216.500 M118.378 225.498 C 117.474 227.301,117.487 227.479,118.420 226.083 C 118.904 225.359,119.217 224.683,119.115 224.582 C 119.013 224.480,118.681 224.892,118.378 225.498 M116.749 228.352 C 116.391 228.708,115.603 229.990,114.998 231.200 C 114.392 232.410,113.312 234.300,112.598 235.400 C 111.883 236.500,110.555 238.827,109.647 240.571 C 108.739 242.315,107.745 244.025,107.440 244.371 C 107.134 244.717,106.033 246.620,104.993 248.600 C 103.953 250.580,102.875 252.470,102.596 252.800 C 102.317 253.130,101.456 254.660,100.683 256.200 C 99.909 257.740,98.793 259.708,98.201 260.573 C 96.869 262.520,93.455 268.800,93.727 268.800 C 93.837 268.800,94.777 267.225,95.815 265.300 C 96.853 263.375,97.839 261.710,98.006 261.600 C 98.173 261.490,99.258 259.600,100.418 257.400 C 101.579 255.200,102.747 253.130,103.015 252.800 C 103.283 252.470,104.353 250.580,105.393 248.600 C 106.433 246.620,107.534 244.717,107.840 244.371 C 108.145 244.025,109.139 242.315,110.047 240.571 C 110.955 238.827,112.283 236.500,112.997 235.400 C 113.711 234.300,114.699 232.590,115.193 231.600 C 115.686 230.610,116.461 229.396,116.913 228.902 C 117.865 227.863,117.722 227.383,116.749 228.352 M92.899 269.700 C 92.336 270.406,91.144 272.800,91.356 272.800 C 91.452 272.800,91.984 271.990,92.538 271.000 C 93.535 269.216,93.668 268.736,92.899 269.700 M310.168 273.429 C 310.487 274.105,311.029 274.892,311.374 275.178 C 311.718 275.464,312.000 275.935,312.000 276.225 C 312.000 276.515,312.178 276.863,312.395 276.997 C 312.994 277.367,312.388 275.956,311.432 274.754 C 310.974 274.178,310.372 273.368,310.094 272.954 C 309.816 272.539,309.849 272.753,310.168 273.429 M90.040 274.623 C 89.578 275.405,89.200 276.156,89.200 276.291 C 89.200 276.426,88.885 276.908,88.500 277.362 C 87.895 278.075,87.891 278.116,88.471 277.668 C 89.105 277.179,91.395 273.200,91.043 273.200 C 90.953 273.200,90.501 273.840,90.040 274.623 M312.815 277.800 C 312.817 278.020,313.186 278.650,313.636 279.200 C 314.179 279.864,314.315 279.931,314.040 279.400 C 313.366 278.095,312.812 277.372,312.815 277.800 M86.640 280.398 C 86.040 281.499,85.636 282.400,85.741 282.400 C 86.008 282.400,88.043 278.710,87.871 278.537 C 87.793 278.460,87.239 279.297,86.640 280.398 M314.400 280.623 C 314.400 281.004,316.421 284.000,316.678 284.000 C 316.869 284.000,316.627 283.580,315.317 281.644 C 314.813 280.898,314.400 280.439,314.400 280.623 M84.805 283.987 C 84.529 284.654,84.164 285.200,83.994 285.200 C 83.824 285.200,83.572 285.495,83.434 285.857 C 83.219 286.416,83.275 286.435,83.817 285.986 C 84.554 285.375,85.742 283.209,85.483 282.950 C 85.387 282.853,85.082 283.320,84.805 283.987 M318.082 287.000 C 318.610 288.282,321.202 292.400,321.480 292.400 C 321.688 292.400,321.373 291.856,319.932 289.728 C 319.309 288.808,318.800 287.898,318.800 287.704 C 318.800 287.511,318.527 287.004,318.193 286.576 C 317.637 285.864,317.628 285.898,318.082 287.000 M81.800 288.800 C 81.243 289.900,80.877 290.800,80.987 290.800 C 81.097 290.800,81.643 289.900,82.200 288.800 C 82.757 287.700,83.123 286.800,83.013 286.800 C 82.903 286.800,82.357 287.700,81.800 288.800 M79.136 293.498 C 78.810 293.884,77.863 295.550,77.033 297.200 C 76.202 298.850,75.097 300.764,74.577 301.453 C 74.056 302.142,72.705 304.482,71.574 306.653 C 70.442 308.824,69.345 310.707,69.135 310.838 C 68.926 310.969,68.292 311.959,67.726 313.038 C 67.161 314.117,66.292 315.774,65.794 316.719 C 65.297 317.665,64.635 318.745,64.324 319.119 C 64.013 319.494,63.320 320.700,62.784 321.800 C 62.248 322.900,60.850 325.303,59.677 327.139 C 58.504 328.976,57.619 330.552,57.709 330.642 C 57.918 330.851,61.877 324.448,63.203 321.756 C 63.756 320.632,64.460 319.409,64.768 319.039 C 65.075 318.669,65.721 317.609,66.204 316.683 C 68.452 312.371,69.033 311.379,69.477 311.093 C 69.739 310.924,70.691 309.269,71.593 307.414 C 72.495 305.560,73.831 303.173,74.562 302.110 C 75.292 301.048,76.650 298.745,77.579 296.992 C 78.507 295.240,79.472 293.679,79.722 293.525 C 79.972 293.370,80.076 293.143,79.953 293.019 C 79.829 292.896,79.462 293.111,79.136 293.498 M321.600 292.921 C 321.600 293.298,323.210 296.137,323.687 296.600 C 323.914 296.820,323.608 296.100,323.007 295.000 C 321.851 292.882,321.600 292.511,321.600 292.921 M324.000 297.313 C 324.000 297.695,326.850 302.000,327.103 302.000 C 327.207 302.000,326.972 301.505,326.582 300.900 C 324.844 298.208,324.000 297.036,324.000 297.313 M327.214 302.800 C 327.216 303.130,327.570 303.850,328.000 304.400 C 328.430 304.950,328.786 305.539,328.791 305.708 C 328.796 305.877,329.291 306.777,329.892 307.708 C 331.630 310.402,332.507 311.914,334.173 315.092 C 334.546 315.803,335.013 316.485,335.212 316.608 C 335.411 316.731,336.118 317.972,336.784 319.366 C 337.449 320.760,338.589 322.778,339.318 323.850 C 340.046 324.923,340.956 326.475,341.340 327.300 C 341.724 328.125,342.299 328.800,342.619 328.800 C 342.961 328.800,343.200 329.184,343.200 329.735 L 343.200 330.669 322.500 330.934 C 311.115 331.080,297.210 331.202,291.600 331.206 C 285.990 331.209,281.192 331.344,280.937 331.506 C 280.453 331.813,291.185 331.758,323.881 331.283 L 343.400 331.000 343.528 330.097 C 343.612 329.508,343.230 328.768,342.428 327.967 C 341.753 327.291,341.200 326.568,341.200 326.360 C 341.200 326.151,340.569 325.063,339.797 323.941 C 339.025 322.819,337.849 320.760,337.184 319.366 C 336.518 317.972,335.811 316.731,335.612 316.608 C 335.413 316.485,334.946 315.803,334.573 315.092 C 332.907 311.914,332.030 310.402,330.292 307.708 C 329.691 306.777,329.200 305.941,329.200 305.849 C 329.200 305.757,328.752 304.898,328.205 303.941 C 327.657 302.983,327.211 302.470,327.214 302.800 M57.225 331.620 C 57.211 331.961,57.416 332.456,57.680 332.720 C 58.208 333.248,135.600 333.318,180.600 332.832 C 193.580 332.692,171.310 332.656,131.111 332.753 L 58.022 332.930 57.636 331.965 C 57.417 331.416,57.240 331.267,57.225 331.620 M221.333 331.989 C 212.276 332.105,204.776 332.290,204.665 332.400 C 204.555 332.510,208.005 332.545,212.333 332.477 C 216.660 332.410,233.700 332.214,250.200 332.043 C 277.868 331.755,278.552 331.733,259.000 331.755 C 247.340 331.768,230.390 331.873,221.333 331.989 " stroke="none" fill="#c02424" fill-rule="evenodd"></path></g></svg>